<?xml version="1.0" encoding="UTF-8"?>
<svg xmlns="http://www.w3.org/2000/svg" xmlns:xlink="http://www.w3.org/1999/xlink" width="338px" height="40px" viewBox="0 0 338 40" version="1.1">
  <title>Logo-Horizontaal</title>
  <g id="Definitieve-pagina's" stroke="none" stroke-width="1" fill="none" fill-rule="evenodd">
    <g id="De-Stap-naar-Gezonder---Homepage" transform="translate(-160.000000, -48.000000)" fill-rule="nonzero">
      <g id="Logo-Horizontaal" transform="translate(160.000000, 48.000000)">
        <path d="M15.8194774,0.783847981 L-3.15544362e-30,0.783847981 L-3.15544362e-30,7.14964371 L5.05938242,7.14964371 L5.05938242,32.8503563 L-3.15544362e-30,32.8503563 L-3.15544362e-30,39.216152 L15.8194774,39.216152 C20.9738717,39.216152 24.9168646,37.9097387 27.6009501,35.2969121 C30.2850356,32.6840855 31.6389549,28.7885986 31.6389549,23.6342043 L31.6389549,16.3657957 C31.6389549,11.2114014 30.2850356,7.31591449 27.6009501,4.70308789 C24.9168646,2.09026128 20.9976247,0.783847981 15.8194774,0.783847981 Z M24.3942993,23.847981 C24.3942993,26.6270784 23.7054632,28.7885986 22.3515439,30.3325416 C20.9976247,31.8764846 18.8598575,32.6365796 15.9144893,32.6365796 L12.280285,32.6365796 L12.280285,7.36342043 L15.9144893,7.36342043 C18.8361045,7.36342043 20.9738717,8.12351544 22.3515439,9.64370546 C23.7054632,11.1638955 24.3942993,13.3254157 24.3942993,16.152019 L24.3942993,23.847981 L24.3942993,23.847981 Z M46.0095012,32.6365796 L63.8004751,32.6365796 L63.8004751,39.239905 L38.7410926,39.239905 L38.7410926,0.783847981 L63.4679335,0.783847981 L63.4679335,7.3871734 L46.0095012,7.3871734 L46.0095012,16.5558195 L61.9477435,16.5558195 L61.9477435,23.1591449 L46.0095012,23.1591449 L46.0095012,32.6365796 L46.0095012,32.6365796 Z M106.389549,22.3515439 C107.529691,23.847981 108.099762,25.7719715 108.099762,28.1235154 C108.099762,30.4750594 107.505938,32.5178147 106.31829,34.2992874 C105.130641,36.0807601 103.444181,37.4584323 101.258907,38.47981 C99.0736342,39.5011876 96.5083135,40 93.5391924,40 C90.5700713,40 87.9572447,39.4774347 85.6769596,38.4085511 C83.3966746,37.3396675 81.6389549,35.8194774 80.3562945,33.847981 C79.0736342,31.8764846 78.432304,29.5011876 78.432304,26.6983373 L78.432304,25.1543943 L85.5819477,25.1543943 L85.5819477,26.6983373 C85.5819477,29.0023753 86.2945368,30.736342 87.719715,31.9002375 C89.1448931,33.064133 91.0926366,33.6342043 93.5391924,33.6342043 C96.0332542,33.6342043 97.8859857,33.1353919 99.1211401,32.1615202 C100.356295,31.1638955 100.950119,29.9049881 100.950119,28.3610451 C100.950119,27.2921615 100.64133,26.4370546 100.047506,25.7719715 C99.4536817,25.1068884 98.5748219,24.584323 97.4109264,24.1567696 C96.2470309,23.7292162 94.8456057,23.3491686 93.2066508,22.9691211 L91.9477435,22.6840855 C89.3111639,22.0902613 87.0546318,21.3539192 85.1543943,20.4513064 C83.2779097,19.5486936 81.8289786,18.3847981 80.807601,16.912114 C79.8099762,15.4394299 79.2874109,13.5391924 79.2874109,11.2114014 C79.2874109,8.85985748 79.8337292,6.86460808 80.9738717,5.20190024 C82.0902613,3.5391924 83.6579572,2.25653207 85.7007126,1.35391924 C87.7434679,0.451306413 90.1187648,-1.42108547e-14 92.8741093,-1.42108547e-14 C95.6294537,-1.42108547e-14 98.0760095,0.475059382 100.213777,1.40142518 C102.351544,2.32779097 104.038005,3.72921615 105.273159,5.58194774 C106.508314,7.43467933 107.102138,9.73871734 107.102138,12.5415677 L107.102138,14.1805226 L99.9524941,14.1805226 L99.9524941,12.5415677 C99.9524941,11.0688836 99.6674584,9.90498812 99.0973872,9.0023753 C98.5273159,8.09976247 97.719715,7.43467933 96.6508314,7.03087886 C95.5819477,6.60332542 94.3230404,6.38954869 92.8503563,6.38954869 C90.6650831,6.38954869 89.0261283,6.79334917 87.9809976,7.62470309 C86.935867,8.45605701 86.4133017,9.57244656 86.4133017,10.9976247 C86.4133017,11.9477435 86.6508314,12.7553444 87.1496437,13.4204276 C87.6484561,14.0855107 88.3847981,14.631829 89.3824228,15.0593824 C90.3800475,15.5106888 91.6389549,15.8907363 93.1828979,16.2232779 L94.4418052,16.5083135 C97.1971496,17.1021378 99.5724466,17.8384798 101.615202,18.7648456 C103.68171,19.6437055 105.249406,20.8551069 106.389549,22.3515439 Z M109.643705,0.783847981 L139.311164,0.783847981 L139.311164,7.3871734 L128.099762,7.3871734 L128.099762,39.239905 L120.855107,39.239905 L120.855107,7.36342043 L109.643705,7.36342043 L109.643705,0.783847981 L109.643705,0.783847981 Z M206.033254,6.31828979 C204.988124,4.56057007 203.539192,3.20665083 201.686461,2.2327791 C199.833729,1.25890736 197.695962,0.783847981 195.296912,0.783847981 L179.477435,0.783847981 L179.477435,39.239905 L186.72209,39.239905 L186.72209,25.1543943 L195.296912,25.1543943 C197.648456,25.1543943 199.738717,24.6793349 201.591449,23.7054632 C203.444181,22.7315914 204.893112,21.3539192 205.985748,19.5961995 C207.054632,17.8147268 207.60095,15.7482185 207.60095,13.3729216 L207.60095,12.6128266 C207.60095,10.1662708 207.078385,8.0760095 206.033254,6.31828979 Z M200.332542,13.2304038 C200.332542,14.8693587 199.809976,16.175772 198.741093,17.1258907 C197.672209,18.0760095 196.294537,18.5510689 194.56057,18.5510689 L186.698337,18.5510689 L186.698337,7.33966746 L194.56057,7.33966746 C196.270784,7.33966746 197.672209,7.81472684 198.741093,8.76484561 C199.809976,9.71496437 200.332542,11.0213777 200.332542,12.6603325 L200.332542,13.2304038 L200.332542,13.2304038 Z" id="Shape" fill="#231E4A"></path>
        <polygon id="Path" fill="#FF8B86" points="172.779097 0.783847981 172.779097 39.239905 134.32304 39.239905 134.32304 26.4133017 147.149644 26.4133017 147.149644 26.4133017 147.149644 13.5866983 159.976247 13.5866983 159.976247 13.5866983 159.976247 0.760095012"></polygon>
        <path d="M222.541568,13.9429929 L222.541568,1.11638955 L225.748219,1.11638955 L225.748219,2.80285036 L226.223278,2.80285036 C226.437055,2.35154394 226.817102,1.9239905 227.387173,1.52019002 C227.957245,1.11638955 228.812352,0.902612827 229.976247,0.902612827 C230.973872,0.902612827 231.852732,1.14014252 232.589074,1.59144893 C233.349169,2.04275534 233.91924,2.68408551 234.32304,3.46793349 C234.726841,4.27553444 234.940618,5.20190024 234.940618,6.27078385 L234.940618,13.9192399 L231.686461,13.9192399 L231.686461,6.53206651 C231.686461,5.55819477 231.448931,4.8456057 230.973872,4.37054632 C230.498812,3.89548694 229.833729,3.65795724 228.954869,3.65795724 C227.957245,3.65795724 227.173397,3.99049881 226.627078,4.65558195 C226.08076,5.32066508 225.795724,6.24703088 225.795724,7.43467933 L225.795724,13.9429929 L222.541568,13.9429929 L222.541568,13.9429929 Z M242.446556,14.3230404 C241.543943,14.3230404 240.712589,14.1567696 240,13.847981 C239.287411,13.5391924 238.693587,13.064133 238.289786,12.4465558 C237.862233,11.8289786 237.648456,11.0926366 237.648456,10.2137767 C237.648456,9.33491686 237.862233,8.59857482 238.289786,8.00475059 C238.71734,7.41092637 239.287411,6.95961995 240.047506,6.65083135 C240.807601,6.34204276 241.662708,6.19952494 242.612827,6.19952494 L246.128266,6.19952494 L246.128266,5.48693587 C246.128266,4.89311164 245.938242,4.39429929 245.558195,3.99049881 C245.178147,3.61045131 244.584323,3.42042755 243.752969,3.42042755 C242.945368,3.42042755 242.351544,3.61045131 241.947743,3.96674584 C241.543943,4.34679335 241.28266,4.82185273 241.163895,5.39192399 L238.171021,4.39429929 C238.384798,3.72921615 238.71734,3.13539192 239.168646,2.58907363 C239.619952,2.04275534 240.23753,1.6152019 240.997625,1.25890736 C241.75772,0.926365796 242.707838,0.760095012 243.800475,0.760095012 C245.486936,0.760095012 246.817102,1.18764846 247.814727,2.01900238 C248.788599,2.87410926 249.287411,4.08551069 249.287411,5.70071259 L249.287411,10.4988124 C249.287411,11.0213777 249.524941,11.2826603 250,11.2826603 L251.045131,11.2826603 L251.045131,13.9667458 L248.88361,13.9667458 C248.24228,13.9667458 247.719715,13.8004751 247.315914,13.4916865 C246.912114,13.1828979 246.698337,12.7790974 246.698337,12.2565321 L246.698337,12.2327791 L246.199525,12.2327791 C246.128266,12.4465558 245.985748,12.7078385 245.724466,13.04038 C245.486936,13.3729216 245.106888,13.6817102 244.584323,13.9429929 C244.038005,14.1805226 243.325416,14.3230404 242.446556,14.3230404 Z M243.016627,11.6864608 C243.91924,11.6864608 244.679335,11.4251781 245.249406,10.9263658 C245.819477,10.4275534 246.104513,9.73871734 246.104513,8.90736342 L246.104513,8.64608076 L242.826603,8.64608076 C242.232779,8.64608076 241.75772,8.76484561 241.401425,9.02612827 C241.045131,9.28741093 240.87886,9.64370546 240.87886,10.1187648 C240.87886,10.5938242 241.068884,10.9738717 241.425178,11.2589074 C241.781473,11.543943 242.327791,11.6864608 243.016627,11.6864608 Z M257.387173,14.3230404 C256.484561,14.3230404 255.653207,14.1567696 254.940618,13.847981 C254.228029,13.5391924 253.634204,13.064133 253.230404,12.4465558 C252.80285,11.8289786 252.589074,11.0926366 252.589074,10.2137767 C252.589074,9.33491686 252.80285,8.59857482 253.230404,8.00475059 C253.657957,7.41092637 254.228029,6.95961995 254.988124,6.65083135 C255.748219,6.34204276 256.603325,6.19952494 257.553444,6.19952494 L261.068884,6.19952494 L261.068884,5.48693587 C261.068884,4.89311164 260.87886,4.39429929 260.498812,3.99049881 C260.118765,3.61045131 259.524941,3.42042755 258.693587,3.42042755 C257.885986,3.42042755 257.292162,3.61045131 256.888361,3.96674584 C256.484561,4.34679335 256.223278,4.82185273 256.104513,5.39192399 L253.111639,4.39429929 C253.325416,3.72921615 253.657957,3.13539192 254.109264,2.58907363 C254.56057,2.04275534 255.178147,1.6152019 255.938242,1.25890736 C256.698337,0.926365796 257.648456,0.760095012 258.741093,0.760095012 C260.427553,0.760095012 261.75772,1.18764846 262.755344,2.01900238 C263.729216,2.87410926 264.228029,4.08551069 264.228029,5.70071259 L264.228029,10.4988124 C264.228029,11.0213777 264.465558,11.2826603 264.940618,11.2826603 L265.985748,11.2826603 L265.985748,13.9667458 L263.824228,13.9667458 C263.182898,13.9667458 262.660333,13.8004751 262.256532,13.4916865 C261.852732,13.1828979 261.638955,12.7790974 261.638955,12.2565321 L261.638955,12.2327791 L261.140143,12.2327791 C261.068884,12.4465558 260.926366,12.7078385 260.665083,13.04038 C260.427553,13.3729216 260.047506,13.6817102 259.524941,13.9429929 C258.978622,14.1805226 258.266033,14.3230404 257.387173,14.3230404 Z M257.957245,11.6864608 C258.859857,11.6864608 259.619952,11.4251781 260.190024,10.9263658 C260.760095,10.4275534 261.045131,9.73871734 261.045131,8.90736342 L261.045131,8.64608076 L257.767221,8.64608076 C257.173397,8.64608076 256.698337,8.76484561 256.342043,9.02612827 C255.985748,9.28741093 255.819477,9.64370546 255.819477,10.1187648 C255.819477,10.5938242 256.009501,10.9738717 256.365796,11.2589074 C256.72209,11.543943 257.268409,11.6864608 257.957245,11.6864608 Z M268.337292,13.9429929 L268.337292,1.11638955 L271.543943,1.11638955 L271.543943,2.56532067 L272.019002,2.56532067 C272.209026,2.04275534 272.517815,1.66270784 272.969121,1.42517815 C273.420428,1.18764846 273.91924,1.06888361 274.513064,1.06888361 L276.057007,1.06888361 L276.057007,3.96674584 L274.465558,3.96674584 C273.634204,3.96674584 272.969121,4.18052257 272.422803,4.63182898 C271.900238,5.05938242 271.615202,5.74821853 271.615202,6.65083135 L271.615202,13.9429929 L268.337292,13.9429929 Z M221.92399,27.695962 L221.92399,27.2921615 C221.92399,25.9382423 222.185273,24.7980998 222.731591,23.847981 C223.254157,22.8978622 223.966746,22.1615202 224.869359,21.6627078 C225.748219,21.1638955 226.72209,20.9026128 227.767221,20.9026128 C228.931116,20.9026128 229.833729,21.1163895 230.427553,21.52019 C231.021378,21.9239905 231.472684,22.3752969 231.733967,22.8028504 L232.209026,22.8028504 L232.209026,21.2589074 L235.415677,21.2589074 L235.415677,36.3657957 C235.415677,37.2446556 235.154394,37.9572447 234.631829,38.47981 C234.109264,39.0023753 233.420428,39.263658 232.565321,39.263658 L223.990499,39.263658 L223.990499,36.4133017 L231.425178,36.4133017 C231.900238,36.4133017 232.137767,36.152019 232.137767,35.6294537 L232.137767,32.304038 L231.662708,32.304038 C231.496437,32.5890736 231.258907,32.8503563 230.950119,33.1353919 C230.64133,33.4204276 230.23753,33.6579572 229.714964,33.847981 C229.192399,34.0380048 228.551069,34.1330166 227.743468,34.1330166 C226.698337,34.1330166 225.724466,33.871734 224.845606,33.3729216 C223.966746,32.8741093 223.254157,32.1377672 222.707838,31.1876485 C222.185273,30.1900238 221.92399,29.0498812 221.92399,27.695962 Z M228.693587,31.2589074 C229.691211,31.2589074 230.522565,30.9501188 231.211401,30.3087886 C231.876485,29.6674584 232.209026,28.7648456 232.209026,27.6247031 L232.209026,27.3634204 C232.209026,26.1995249 231.876485,25.2969121 231.211401,24.6555819 C230.546318,24.0380048 229.714964,23.7054632 228.693587,23.7054632 C227.695962,23.7054632 226.864608,24.0142518 226.175772,24.6555819 C225.510689,25.2731591 225.178147,26.175772 225.178147,27.3634204 L225.178147,27.6247031 C225.178147,28.7885986 225.510689,29.6674584 226.175772,30.3087886 C226.840855,30.9501188 227.695962,31.2589074 228.693587,31.2589074 Z M244.869359,34.4180523 C243.586698,34.4180523 242.470309,34.1567696 241.496437,33.6104513 C240.522565,33.064133 239.76247,32.304038 239.216152,31.3064133 C238.669834,30.3087886 238.408551,29.1448931 238.408551,27.8147268 L238.408551,27.5059382 C238.408551,26.152019 238.669834,24.9881235 239.216152,24.0142518 C239.738717,23.0166271 240.498812,22.2565321 241.472684,21.7102138 C242.446556,21.1638955 243.562945,20.9026128 244.821853,20.9026128 C246.08076,20.9026128 247.173397,21.1876485 248.099762,21.7339667 C249.026128,22.304038 249.76247,23.064133 250.261283,24.0617577 C250.783848,25.0593824 251.045131,26.1995249 251.045131,27.5059382 L251.045131,28.6223278 L241.710214,28.6223278 C241.733967,29.5011876 242.066508,30.2137767 242.684086,30.760095 C243.301663,31.3064133 244.061758,31.5914489 244.964371,31.5914489 C245.866983,31.5914489 246.555819,31.4014252 246.983373,30.9976247 C247.410926,30.5938242 247.743468,30.1662708 247.957245,29.6912114 L250.617577,31.0926366 C250.380048,31.543943 250.023753,32.0190024 249.572447,32.5415677 C249.12114,33.064133 248.503563,33.5154394 247.743468,33.8954869 C247.007126,34.2280285 246.033254,34.4180523 244.869359,34.4180523 Z M241.733967,26.175772 L247.719715,26.175772 C247.648456,25.4394299 247.36342,24.8456057 246.817102,24.3942993 C246.294537,23.9429929 245.605701,23.7292162 244.750594,23.7292162 C243.871734,23.7292162 243.182898,23.9429929 242.660333,24.3942993 C242.185273,24.8456057 241.852732,25.4394299 241.733967,26.175772 Z M253.27791,34.0617577 L253.27791,30.1900238 L260.308789,24.3467933 L260.308789,23.9429929 L253.539192,23.9429929 L253.539192,21.2589074 L263.871734,21.2589074 L263.871734,25.1306413 L256.840855,30.9738717 L256.840855,31.3776722 L264.085511,31.3776722 L264.085511,34.0617577 L253.27791,34.0617577 Z M273.016627,34.4180523 C271.733967,34.4180523 270.593824,34.1567696 269.572447,33.6342043 C268.551069,33.111639 267.743468,32.3752969 267.173397,31.3776722 C266.579572,30.4038005 266.294537,29.216152 266.294537,27.8384798 L266.294537,27.4346793 C266.294537,26.0570071 266.579572,24.8693587 267.173397,23.8954869 C267.767221,22.9216152 268.551069,22.1615202 269.572447,21.6389549 C270.593824,21.1163895 271.733967,20.8551069 273.016627,20.8551069 C274.299287,20.8551069 275.43943,21.1163895 276.460808,21.6389549 C277.482185,22.1615202 278.289786,22.8978622 278.859857,23.8954869 C279.453682,24.8693587 279.738717,26.0570071 279.738717,27.4346793 L279.738717,27.8384798 C279.738717,29.216152 279.453682,30.4038005 278.859857,31.3776722 C278.266033,32.3515439 277.482185,33.111639 276.460808,33.6342043 C275.43943,34.1567696 274.299287,34.4180523 273.016627,34.4180523 Z M273.016627,31.52019 C274.014252,31.52019 274.845606,31.1876485 275.486936,30.5463183 C276.152019,29.9049881 276.460808,28.9786223 276.460808,27.7672209 L276.460808,27.5059382 C276.460808,26.2945368 276.128266,25.368171 275.486936,24.7268409 C274.845606,24.0855107 274.014252,23.7529691 272.992874,23.7529691 C271.995249,23.7529691 271.163895,24.0855107 270.522565,24.7268409 C269.857482,25.368171 269.548694,26.2945368 269.548694,27.5059382 L269.548694,27.7672209 C269.548694,28.9786223 269.881235,29.9049881 270.522565,30.5463183 C271.187648,31.2114014 272.019002,31.52019 273.016627,31.52019 Z M282.731591,34.0617577 L282.731591,21.2351544 L285.938242,21.2351544 L285.938242,22.9216152 L286.413302,22.9216152 C286.627078,22.4703088 287.007126,22.0427553 287.577197,21.6389549 C288.147268,21.2351544 289.002375,21.0213777 290.166271,21.0213777 C291.163895,21.0213777 292.042755,21.2589074 292.779097,21.7102138 C293.539192,22.1615202 294.109264,22.8028504 294.513064,23.5866983 C294.916865,24.3942993 295.130641,25.3206651 295.130641,26.3895487 L295.130641,34.0380048 L291.876485,34.0380048 L291.876485,26.6508314 C291.876485,25.6769596 291.638955,24.9643705 291.163895,24.4893112 C290.688836,24.0142518 290.023753,23.7767221 289.144893,23.7767221 C288.147268,23.7767221 287.36342,24.1092637 286.817102,24.7743468 C286.270784,25.4394299 285.985748,26.3657957 285.985748,27.5534442 L285.985748,34.0617577 L282.731591,34.0617577 Z M303.824228,34.4180523 C302.80285,34.4180523 301.852732,34.1567696 300.973872,33.6579572 C300.095012,33.1591449 299.382423,32.3990499 298.836105,31.4251781 C298.313539,30.4513064 298.028504,29.263658 298.028504,27.8622328 L298.028504,27.4584323 C298.028504,26.0570071 298.289786,24.8693587 298.836105,23.8954869 C299.35867,22.9216152 300.071259,22.1615202 300.950119,21.6627078 C301.828979,21.1638955 302.779097,20.9026128 303.824228,20.9026128 C304.608076,20.9026128 305.249406,20.9976247 305.771971,21.1638955 C306.294537,21.3539192 306.72209,21.567696 307.054632,21.8527316 C307.387173,22.1377672 307.624703,22.4228029 307.814727,22.7315914 L308.289786,22.7315914 L308.289786,15.9619952 L311.543943,15.9619952 L311.543943,34.0617577 L308.313539,34.0617577 L308.313539,32.5178147 L307.83848,32.5178147 C307.553444,32.9928741 307.102138,33.4441805 306.484561,33.824228 C305.890736,34.2280285 304.988124,34.4180523 303.824228,34.4180523 Z M304.7981,31.567696 C305.795724,31.567696 306.627078,31.2351544 307.315914,30.5938242 C307.980998,29.9524941 308.313539,29.0023753 308.313539,27.7672209 L308.313539,27.5059382 C308.313539,26.2707838 307.980998,25.3206651 307.315914,24.6793349 C306.650831,24.0380048 305.819477,23.7054632 304.7981,23.7054632 C303.800475,23.7054632 302.969121,24.0380048 302.280285,24.6793349 C301.615202,25.3206651 301.28266,26.2707838 301.28266,27.5059382 L301.28266,27.7672209 C301.28266,29.0023753 301.615202,29.9524941 302.280285,30.5938242 C302.969121,31.2589074 303.800475,31.567696 304.7981,31.567696 Z M320.997625,34.4180523 C319.714964,34.4180523 318.598575,34.1567696 317.624703,33.6104513 C316.650831,33.064133 315.890736,32.304038 315.344418,31.3064133 C314.7981,30.3087886 314.536817,29.1448931 314.536817,27.8147268 L314.536817,27.5059382 C314.536817,26.152019 314.7981,24.9881235 315.344418,24.0142518 C315.866983,23.0166271 316.627078,22.2565321 317.60095,21.7102138 C318.574822,21.1638955 319.691211,20.9026128 320.950119,20.9026128 C322.209026,20.9026128 323.301663,21.1876485 324.228029,21.7339667 C325.154394,22.304038 325.890736,23.064133 326.389549,24.0617577 C326.912114,25.0593824 327.173397,26.1995249 327.173397,27.5059382 L327.173397,28.6223278 L317.83848,28.6223278 C317.862233,29.5011876 318.194774,30.2137767 318.812352,30.760095 C319.429929,31.3064133 320.190024,31.5914489 321.092637,31.5914489 C321.995249,31.5914489 322.684086,31.4014252 323.111639,30.9976247 C323.539192,30.5938242 323.871734,30.1662708 324.085511,29.6912114 L326.745843,31.0926366 C326.508314,31.543943 326.152019,32.0190024 325.700713,32.5415677 C325.249406,33.064133 324.631829,33.5154394 323.871734,33.8954869 C323.135392,34.2280285 322.16152,34.4180523 320.997625,34.4180523 Z M317.862233,26.175772 L323.847981,26.175772 C323.776722,25.4394299 323.491686,24.8456057 322.945368,24.3942993 C322.422803,23.9429929 321.733967,23.7292162 320.87886,23.7292162 C320,23.7292162 319.311164,23.9429929 318.788599,24.3942993 C318.313539,24.8456057 317.980998,25.4394299 317.862233,26.175772 Z M330.071259,34.0617577 L330.071259,21.2351544 L333.27791,21.2351544 L333.27791,22.6840855 L333.752969,22.6840855 C333.942993,22.1615202 334.251781,21.7814727 334.703088,21.543943 C335.154394,21.3064133 335.653207,21.1876485 336.247031,21.1876485 L337.790974,21.1876485 L337.790974,24.0855107 L336.199525,24.0855107 C335.368171,24.0855107 334.703088,24.2992874 334.15677,24.7505938 C333.634204,25.1781473 333.349169,25.8669834 333.349169,26.7695962 L333.349169,34.0617577 L330.071259,34.0617577 L330.071259,34.0617577 Z" id="Combined-Shape" fill="#231E4A"></path>
      </g>
    </g>
  </g>
</svg>
