<?xml version="1.0" encoding="UTF-8"?>
<svg width="400px" height="220px" viewBox="0 0 400 220" version="1.1" xmlns="http://www.w3.org/2000/svg" xmlns:xlink="http://www.w3.org/1999/xlink">
    <title>01 — Ik wil gezond en fit zijn</title>
    <defs>
        <rect id="path-1" x="0" y="0" width="400" height="220" rx="4"></rect>
    </defs>
    <g id="01-—-Ik-wil-gezond-en-fit-zijn" stroke="none" stroke-width="1" fill="none" fill-rule="evenodd">
        <g id="Group-2-+-Group-Mask">
            <mask id="mask-2" fill="white">
                <use xlink:href="#path-1"></use>
            </mask>
            <use id="Mask" fill="#DE2B37" xlink:href="#path-1"></use>
            <g id="Group-2" mask="url(#mask-2)" stroke="#FD9098" stroke-width="2">
                <polyline id="Stroke-1" points="235 220 235 165 290.034 165 290.034 110 345.068 110 345.068 55 400 55.102"></polyline>
                <polyline id="Stroke-1" transform="translate(82.5, 82.5) scale(-1, -1) translate(-82.5, -82.5)" points="0 165 0 110 55.034 110 55.034 55 110.068 55 110.068 0 165 0.102"></polyline>
            </g>
            <g id="Group" mask="url(#mask-2)">
                <g transform="translate(89, 10)">
                    <g id="Group" stroke-width="1" fill="none" fill-rule="evenodd" transform="translate(2.4719, 1.236)">
                        <polygon id="Path" fill="#FFFFFF" fill-rule="nonzero" points="13.4755341 98.2559525 21.6229299 104.09217 30.0807028 102.613662 36.4951605 101.524234 39.8058483 100.201358 44.7460153 91.7453285 45.0822571 81.9923617 41.3318685 73.0694347 33.2362021 71.1759066 27.1062567 73.3547609 27.9597934 70.2680506 33.1844727 64.7430987 34.3225216 60.2297577 32.9258252 58.388107 30.3910798 59.9444315 27.7787401 65.2618735 27.1062567 69.6973983 25.5026423 73.6400869 24.6491055 75.8708187 17.3035169 75.9745737 11.1994362 79.5800588 9.10439158 85.701602 10.29417 92.6531841"></polygon>
                        <path d="M99.4758241,29.388594 L99.7603357,33.5647315 L102.320946,36.9886453 L107.390437,38.4152761 L111.839174,36.521748 C111.839174,36.521748 113.028952,35.1988722 113.028952,35.4323208 C113.028952,35.6657695 115.020538,38.2855824 115.25332,38.4152761 C115.486103,38.5449698 119.288221,40.5941303 119.288221,40.5941303 L123.504175,39.5565807 L127.901183,32.8125079 L128.858178,30.8152248 L133.772481,29.7257977 L137.755652,26.3018838 L138.272947,20.8806868 L136.281361,16.8861207 L130.8239,15.2779187 L131.729166,8.53384598 L125.857868,5.21368703 L118.874385,7.31472509 L111.942633,0.518774829 L103.795237,0 L97.8204798,5.08399332 L96.449648,8.92292706 L96.449648,13.1509419 L91.9491818,16.4711008 L89.6213544,24.5380494 L92.6475297,29.1032679 L99.4758241,29.388594 Z" id="Path" fill="#FFFFFF" fill-rule="nonzero"></path>
                        <path d="M177.276988,70.2161731 L187.726347,64.7430987 L198.744729,84.8975008 C198.744729,84.8975008 190.235227,90.915289 189.873121,90.8893498 C189.511014,90.8634114 191.01117,93.690734 191.01117,93.690734 L193.959751,92.4975522 L196.62382,96.6736893 L199.132701,95.4286299 L201.512258,99.1378696 L214.832603,91.6675126 L213.228989,88.0620272 L215.324033,86.3500704 L213.151395,82.1220558 L215.324033,80.461976 L214.16012,77.2715108 L203.710761,82.7964626 L191.838841,62.5642444 L201.719176,56.0536203 L199.494807,52.6815839 L196.753144,53.7969497 L194.813288,50.4508521 L192.640648,51.3846468 C192.640648,51.3846468 191.218088,47.9866717 191.037034,47.856978 C190.855981,47.753223 176.009615,55.5607842 176.009615,55.5607842 L177.768418,59.6850441 L175.880292,61.6563885 L178.389172,65.6250158 L175.54405,67.1035241 L177.276988,70.2161731 Z" id="Path" fill="#FFFFFF" fill-rule="nonzero"></path>
                        <path d="M216.436218,142.01461 L215.634411,139.52449 L213.539365,140.328591 L212.427181,139.861694 L210.539055,140.328591 L209.426871,139.861694 L205.417834,141.833038 L203.529708,142.792772 L202.546848,141.599589 L199.598266,142.01461 L190.623198,143.622811 L184.3122,144.426913 L179.708275,148.81056 L177.483906,155.658388 L173.216222,153.687043 L165.715446,170.85849 L164.577397,156.514366 L159.714824,144.400973 L150.662162,136.697168 L148.774035,132.495091 L143.316573,129.823401 L138.117758,130.419992 L130.047957,131.27597 C134.056993,125.699141 132.375784,115.401461 132.375784,110.421222 C132.375784,104.247802 130.047957,75.3520439 110.571801,75.9745737 C91.0956453,76.5971035 89.8800021,85.9350506 89.8800021,101.524234 C89.8800021,117.113417 99.9931186,126.944201 103.717643,128.682096 C105.476445,129.486198 108.631945,131.587235 112.382333,133.195437 L96.3461889,134.907394 C94.1476854,135.140843 92.0267761,135.944944 90.2162433,137.241881 L83.1551676,142.273997 L74.8525829,153.349839 L71.1021943,166.033884 L67.6880475,177.446931 L65.3084906,182.349352 L53.7986774,165.203845 L48.5481334,158.096629 L45.1339866,159.497321 L44.2287204,157.214712 L34.1673331,148.888376 L24.5973761,145.879482 L16.6568982,146.942971 L16.6568982,149.22558 L22.7092494,150.418762 L18.3639716,151.949147 L9.77687503,152.623555 L0,150.65221 L2.30196264,155.969652 L0.41383598,157.188773 L4.52633103,159.652954 L22.7092494,160.508932 L29.4340841,158.978546 L38.2539634,164.27005 L36.2882425,166.1117 L36.8055375,168.212738 L49.8672356,193.062052 L58.9198977,204.967935 C58.9198977,204.967935 64.8170604,208.314033 65.0757079,208.314033 C65.3343554,208.314033 70.3779813,207.380238 70.3779813,207.380238 L79.3530492,200.273023 L85.5864533,192.569217 L86.4399906,215.291554 C104.700503,220.168037 129.608256,215.965962 144.402892,213.1127 L146.342748,179.703601 L149.834489,183.205331 L159.068205,199.832064 C159.068205,199.832064 167.603572,206.679892 167.86222,206.783647 C168.120867,206.887402 173.164493,204.993874 173.164493,204.993874 L178.05293,197.886659 L181.69986,187.35553 L184.855359,168.342432 L187.41597,160.457055 L183.743175,158.407894 L186.743486,154.906164 L196.649685,151.300679 L206.297236,148.836498 L215.660275,145.153197 L218.764045,143.674689 L216.436218,142.01461 Z" id="Path" fill="#FFFFFF" fill-rule="nonzero"></path>
                    </g>
                    <path d="M99.8924748,97.4126194 C99.4267944,97.5684287 99.0128568,97.7502062 98.5989192,97.98392 L98.2367235,98.1656975 C97.9003991,98.3215068 97.5382042,98.5032842 97.0983952,98.6071571 C97.0725239,98.6071571 97.020782,98.6331253 96.9949106,98.6331253 C96.8655555,98.6071571 96.8396841,98.5552206 96.8138128,98.5032842 L96.8138128,98.477316 C96.7879422,98.4253796 96.7361995,98.3734432 96.7879422,98.0877929 C97.7451726,96.08824 100.384026,95.2312891 102.401972,94.8157977 L102.58307,94.7898295 C102.790039,94.7378931 103.022879,94.7638613 103.203977,94.8417659 C103.385074,94.9196706 103.566172,95.0495116 103.669656,95.2572573 C103.824883,95.5169394 103.850754,95.724685 103.773141,96.0103353 C103.721399,96.2440492 103.592043,96.3998593 103.436816,96.5297003 C103.28159,96.6595414 103.04875,96.737446 102.841781,96.7634142 C101.858679,96.8672871 100.849706,97.1010009 99.8924748,97.4126194 Z M101.18603,100.710583 C100.901448,100.347028 100.48751,100.087346 99.9959594,100.217187 C98.4436927,100.658646 98.909373,102.865945 99.4526658,103.930642 C99.7372483,104.501942 100.694479,104.657751 101.134288,104.138387 C101.832808,103.307405 102.169132,101.645438 101.289514,100.814456 C101.237772,100.788487 101.211901,100.736551 101.18603,100.710583 Z M114.380295,100.970265 C114.199197,102.164802 114.406166,103.255468 114.949459,104.346133 C115.466881,105.384861 116.760436,104.891465 116.83805,103.95661 C116.967406,102.710135 116.786308,102.138834 116.734565,101.281883 C116.631081,99.9575047 114.587264,99.6458862 114.380295,100.970265 Z M114.716619,97.3087466 C115.389268,97.3347148 116.010175,97.4645559 116.656952,97.6463333 C118.053992,98.0358565 119.19232,98.7889345 120.382391,99.5679808 C120.537619,99.6718544 120.692845,99.4641079 120.615232,99.3342669 C119.916712,97.98392 118.597285,96.8672871 117.251987,96.1921128 C116.527597,95.8285579 115.751463,95.5429076 114.97533,95.3870983 L114.74249,95.3351619 C113.992228,95.2053209 113.060868,95.0754798 112.517575,95.6987168 C112.232992,96.0103353 112.129509,96.6335732 112.517575,96.9192235 C113.190224,97.4905241 113.914615,97.2827784 114.716619,97.3087466 Z M108.818007,110.838187 C109.568269,110.21495 108.66278,108.864602 107.834904,109.409935 C106.955287,110.085109 105.170181,111.591265 103.928367,110.266886 C102.867652,108.786697 104.368176,107.384414 105.351279,106.787145 C105.60999,106.605368 105.403021,105.98213 104.859727,106.086004 C99.8666034,106.968923 102.453715,115.564402 108.818007,110.838187 Z M110.473757,116.135703 C110.240918,115.953926 109.956335,115.876021 109.671753,115.927957 C109.438913,115.953926 109.180202,116.109735 108.999105,116.369417 L108.947362,116.421353 C108.611038,116.888781 108.171229,117.252336 107.653806,117.512018 C107.162256,117.745732 106.618963,117.849605 106.075669,117.797668 C105.014954,117.667827 104.264691,117.096527 103.488559,116.31748 C103.385074,116.213608 103.307461,116.109735 103.203977,116.005862 C103.152234,115.901989 103.04875,115.850053 102.971137,115.824084 C102.867652,115.798116 102.738296,115.798116 102.634812,115.824084 C102.531328,115.850053 102.427843,115.927957 102.376101,116.03183 C102.324359,116.109735 102.272617,116.239576 102.298488,116.343449 C102.376101,117.148463 102.790039,117.875573 103.385074,118.446874 C104.057723,119.070111 104.93734,119.511571 105.765216,119.66738 C106.696576,119.849158 107.627936,119.719317 108.481683,119.355762 C109.3613,118.992206 110.137433,118.394937 110.706597,117.641859 C110.913566,117.382177 110.965308,117.096527 110.913566,116.836845 C110.887695,116.577163 110.706597,116.31748 110.473757,116.135703 Z M221.564292,146.180928 C220.995128,146.518515 220.400092,146.804165 219.805057,147.063847 C219.365248,147.245625 218.925439,147.45337 218.459759,147.505307 C215.769164,147.842893 213.544248,149.271146 211.189978,150.439715 C209.767067,151.140857 208.266543,151.764095 206.740148,152.205554 C205.16201,152.647014 203.506259,152.724918 201.928121,153.114442 C199.237526,153.789615 196.572802,154.516725 193.908078,155.32174 C191.657292,155.996914 189.768701,157.269356 188.11295,159.165036 C188.501017,159.346813 188.81147,159.476654 189.096053,159.658432 C189.794572,160.099891 190.570705,160.515383 191.165741,161.086683 C191.941874,161.787826 191.864261,162.125413 191.165741,162.956395 C190.984643,163.164141 190.855288,163.397855 190.777674,163.657537 C188.57863,169.57829 187.440301,175.706789 186.793524,181.991097 C186.25023,187.236677 185.499968,192.482256 183.740733,197.52009 C183.016342,199.623515 182.188467,201.675005 180.946654,203.544716 C179.342644,205.985728 177.169472,207.725599 174.530619,208.894168 C172.072864,209.984834 169.666851,209.59531 167.571291,208.089154 C165.863798,206.84268 164.311532,205.388459 162.88862,203.830367 C160.223897,200.86999 158.205951,197.468154 156.524328,193.858572 C154.765093,190.041244 152.643662,186.405694 150.444618,182.848048 C150.341133,182.666271 150.185907,182.510461 149.901324,182.120938 C149.797841,184.198396 149.746098,185.990202 149.642614,187.807978 C149.151063,196.091838 148.659512,204.401667 148.142089,212.685528 C148.090348,213.438606 148.012734,214.191685 147.857508,214.918794 C147.805765,215.178476 147.495312,215.360254 147.288343,215.593968 C147.107245,215.360254 146.796792,215.12654 146.770921,214.866858 C146.667437,212.659559 146.460468,210.426293 146.589824,208.218995 C146.926148,202.32421 147.365956,196.455393 147.883378,190.560609 C148.297316,185.808425 148.452543,181.056242 148.478414,176.27809 C148.478414,174.616124 148.63364,172.980126 148.762996,171.344129 C148.788868,171.110415 148.944094,170.876701 149.151063,170.383305 C149.254547,170.850733 149.33216,171.006542 149.33216,171.162352 C149.435645,173.811109 149.565,176.433899 149.642614,179.082657 C149.668485,179.91364 149.901324,180.614782 150.49636,181.238019 C153.937218,184.847601 156.653684,188.950579 158.982083,193.365175 C160.53435,196.273615 162.293585,199.078183 164.492629,201.571132 C165.708571,202.947447 167.027998,204.21989 168.450909,205.388459 C170.3395,206.946553 172.383317,207.102362 174.608232,205.855887 C177.247085,204.401667 179.032191,202.246305 180.299876,199.597547 C182.007369,196.091838 183.016342,192.352415 183.637249,188.535088 C184.335769,184.302269 184.853191,180.043481 185.577582,175.810662 C186.327844,171.499938 186.974622,167.163246 188.837342,162.930427 C184.413382,161.450239 180.041165,160.151828 176.884889,156.412405 C174.78933,161.190557 172.69377,165.734994 171.089762,170.513146 C169.511624,175.239361 168.321553,180.095417 166.407091,184.639855 C165.553345,184.561951 165.579216,184.068555 165.6827,183.601126 C165.812056,182.848048 166.019025,182.120938 166.200122,181.393828 C166.277735,181.08221 166.355349,180.744623 166.458833,180.433004 C167.648904,176.927295 167.648904,173.317713 167.493678,169.656195 C167.31258,165.21563 166.924514,160.801033 166.174252,156.438373 C165.501603,152.465236 163.613012,148.959527 161.310483,145.7135 C160.715448,144.882517 159.887572,144.207343 159.085568,143.584106 C157.792012,142.571346 156.394973,141.688427 155.101417,140.675666 C154.506382,140.234207 153.937218,139.948556 153.186956,140.026461 C149.487387,140.415984 145.943045,141.143094 142.967868,143.584106 C142.036508,144.363153 140.975793,145.012359 139.940949,145.635596 C137.40558,147.193688 134.585629,147.60918 131.662194,147.427402 C131.403484,147.401434 131.170643,147.297561 130.679092,147.141752 C131.041288,146.856102 131.222386,146.622388 131.429354,146.596419 C132.127874,146.466578 132.826394,146.414642 133.524914,146.284801 C135.542861,145.973182 137.431451,145.272041 139.113073,144.077502 C140.173788,143.298456 141.260375,142.545378 142.269348,141.688427 C144.494263,139.818715 147.081374,138.779987 149.927196,138.338527 C150.289392,138.28659 150.677458,138.208686 151.039654,138.130781 C151.117267,138.104813 151.19488,138.052876 151.453591,137.897067 C150.832685,137.481576 150.26352,137.118021 149.694356,136.754466 C149.409774,136.572688 149.073449,136.468816 148.840609,136.26107 C148.711254,136.131229 148.581898,135.767674 148.659512,135.637833 C148.788868,135.430087 149.099321,135.222341 149.306289,135.24831 C149.797841,135.300246 150.289392,135.507992 150.936169,135.689769 C150.651587,134.754913 150.056552,134.261517 149.409774,133.846026 C148.400801,133.170852 147.340086,132.677456 146.227628,132.287933 C146.667437,132.677456 147.055503,133.092948 147.340086,133.586344 C147.70228,134.209581 147.857508,135.066531 147.365956,135.637833 C146.770921,136.364943 145.736077,136.105261 144.908201,136.105261 C144.830588,136.105261 144.778846,136.105261 144.701233,136.105261 C144.442521,136.26107 144.209682,136.390911 143.950971,136.520752 C141.467344,137.845131 138.983718,139.143542 136.47422,140.467921 C134.482145,141.506649 132.515941,142.545378 130.523866,143.610075 C129.644248,146.856102 129.385537,150.180033 129.618377,153.555901 C130.032315,159.294877 130.420381,165.033853 130.834319,170.772828 C131.351741,177.680374 130.834319,184.535983 129.359666,191.313687 C127.755658,198.68866 127.315849,206.167506 127.859141,213.698289 C127.962626,215.230413 127.859141,216.814474 127.807399,218.372567 C127.807399,218.814027 127.652173,219.333391 127.160622,219.281454 C126.850168,219.255486 126.436231,218.839995 126.332746,218.528376 C125.71184,216.840443 125.349644,215.100572 125.220288,213.282797 C124.651124,205.544268 125.427258,197.909613 127.057137,190.352863 C128.738759,182.666271 128.816373,174.927743 128.247208,167.111309 C127.859141,161.995571 127.833271,156.827896 127.807399,151.68619 C127.781528,149.115337 128.324822,146.596419 129.307923,144.233312 C126.720813,145.583659 124.107831,146.908038 121.494849,148.154512 C119.140578,149.271146 116.631081,150.23197 113.992228,150.23197 C111.534473,150.23197 109.283686,149.245178 107.369225,147.739021 C106.877674,147.349498 106.386122,146.934006 105.920443,146.492547 C108.041874,152.335395 108.792136,158.411958 108.481683,164.64433 C108.274713,168.877148 107.809034,173.109967 107.369225,177.342787 C106.903545,181.80932 106.748318,186.301821 106.929416,190.768354 C107.213998,198.117359 107.49858,205.492332 108.481683,212.7894 C108.714522,214.555239 108.714522,216.373015 108.818007,218.164821 C108.843877,218.398535 108.818007,218.632249 108.818007,218.865963 C108.792136,219.333391 108.869749,219.878724 108.248842,219.982597 C107.550323,220.112438 107.395095,219.489201 107.291612,218.995804 C106.851803,217.203998 106.360252,215.438159 106.023927,213.620384 C105.066696,208.400772 104.601016,203.155192 104.394047,197.857677 C104.187078,192.871779 103.954238,187.859914 104.109465,182.874016 C104.238821,178.511356 104.807985,174.122728 105.351279,169.786036 C106.33438,161.761858 106.153283,153.789615 104.756243,145.817373 C104.730372,145.635596 104.67863,145.42785 104.652759,145.246073 C103.566172,144.129439 102.557199,142.908933 101.548225,141.740364 C100.823835,140.883412 100.151186,140.026461 99.4526658,139.143542 C98.1332397,138.702082 96.8396841,138.572241 95.6496132,139.429192 C95.0545777,139.870652 94.3301863,139.636938 93.8645067,139.143542 C93.7092802,139.273383 93.5281824,139.403224 93.2953426,139.585001 C94.4078003,139.740811 95.3650307,139.792747 96.2187773,140.052429 C97.0983952,140.312111 97.9521418,140.753571 98.7800171,141.169062 C98.9869863,141.272935 99.219826,141.740364 99.1422128,141.974077 C99.0645995,142.181823 98.6506619,142.441505 98.3919508,142.415537 C97.641688,142.389569 96.891426,142.259728 96.1670354,142.129887 C94.9769644,141.896173 93.7868935,141.558585 92.5968225,141.298903 C91.6137208,141.091158 90.8375875,141.376808 90.0097114,142.026014 C82.3518643,147.998703 78.3159713,156.126755 76.1169272,165.371439 C75.5995051,167.578737 75.0562118,169.786036 74.4353052,171.941398 C73.3487187,175.784694 71.5894834,179.342339 69.5715371,182.744175 C69.0541149,183.627094 68.7695328,184.380173 69.2610838,185.340997 C69.5197948,185.886329 69.6750215,186.509566 69.7267637,187.106836 C69.7526349,187.418455 69.5197948,187.756041 69.3904393,188.06766 C69.1058572,187.937819 68.7177906,187.911851 68.5625639,187.678137 C67.9416573,186.795217 67.3207507,185.886329 66.8033286,184.951474 C65.225191,182.146907 63.8540224,179.238466 62.1465293,176.537772 C59.430063,172.227048 56.506628,168.046166 53.7125483,163.813346 C53.0398996,162.800586 52.418993,161.735889 51.8239576,160.775065 C47.3999982,162.74865 43.2347499,165.007885 39.6904083,168.487625 C40.0784749,169.00699 40.4406704,169.500385 40.7769948,169.993781 C41.6048702,171.240256 42.5879723,172.408826 43.2606211,173.759173 C45.5372785,178.329579 47.6845804,182.925953 49.8836245,187.522327 C52.4966064,192.949684 56.1185614,197.727836 59.7405164,202.505987 C61.2669117,204.50554 63.1037602,206.193474 65.1217067,207.673662 C65.8719687,208.218995 66.648102,208.58255 67.5794618,208.556582 C67.864044,208.556582 68.1486262,208.556582 68.4332083,208.634486 C70.4511547,209.15385 72.2621322,208.608518 73.892012,207.41398 C77.4363537,204.765222 81.0841798,202.246305 83.8523883,198.68866 C85.0165879,197.208472 86.1290456,195.676347 87.3191165,194.222127 C87.7330541,193.702763 87.6813122,193.183398 87.603699,192.612097 C87.1380186,188.327342 86.413628,184.120491 85.3270417,179.939608 C85.0165879,178.719102 84.8613613,177.44666 84.6802635,176.174217 C84.6285216,175.810662 84.6026502,175.395171 84.7061348,175.057584 C84.7837481,174.771934 85.0424592,174.408379 85.275299,174.356442 C85.5081387,174.304506 85.9479477,174.53822 86.0514323,174.771934 C86.5688545,175.83663 87.1121481,176.901327 87.4226011,178.01796 C88.6385434,182.484493 89.2853208,187.080868 89.6475165,191.70321 C90.1908093,199.052215 90.4236499,206.401219 89.9579695,213.776193 C89.8803563,214.996699 89.7510003,216.243174 89.6475165,217.46368 C89.5699033,217.46368 89.4664187,217.489648 89.3888054,217.489648 C89.2853208,217.30787 89.1559648,217.126093 89.1300943,216.918347 C89.0266097,216.087364 88.9231251,215.230413 88.8713832,214.39943 C88.5609294,208.400772 88.2763477,202.428083 87.9917652,196.429425 C87.9917652,196.247647 87.9400233,196.06587 87.8882806,195.676347 C87.603699,196.06587 87.3708592,196.273615 87.2415033,196.533298 C85.4305255,200.194817 82.8434152,203.20713 79.68714,205.752014 C78.1866158,206.972521 76.6860915,208.193027 75.107954,209.30966 C71.5636123,211.828577 68.1744973,211.672767 64.474929,209.387564 C60.1803252,206.764775 56.9723079,203.181161 54.1264861,199.130119 C50.0905933,193.365175 47.1930294,187.028931 44.217852,180.718655 C42.5879723,177.264882 41.1133191,173.733204 39.4575684,170.3054 C38.7849195,168.929085 38.888404,167.812452 39.7680216,166.643882 C39.8973772,166.462104 40.0008615,166.254359 40.1819593,165.968708 C37.7759464,164.462552 35.3958045,162.956395 33.0156626,161.502175 C32.4982405,161.190557 32.0066895,160.904906 31.3081695,161.164589 C27.065308,162.878491 22.6413487,163.164141 18.139776,162.800586 C14.7765321,162.540904 11.387417,162.411063 8.02417309,162.02154 C6.70474662,161.86573 5.43706237,161.242493 4.14350701,160.775065 C3.70369819,160.619256 3.31563158,160.307637 2.97930719,159.996019 C2.22904508,159.294877 2.3066584,158.463894 3.08279162,157.814688 C3.28976047,157.658879 3.52260044,157.529038 3.85892483,157.321292 C3.10866272,156.905801 2.43601393,156.568214 1.81510736,156.178691 C1.29768522,155.841104 0.780263077,155.503518 0.392196469,155.03609 C-0.332194532,154.179138 -0.0217412459,153.322187 1.06484525,152.9846 C1.27181411,152.906696 1.53052519,152.906696 1.73749405,152.880728 C2.20317397,151.582317 2.59124058,151.218761 3.91066704,151.348603 C5.2042224,151.452476 6.52364887,151.712158 7.79133312,152.023777 C11.3615459,152.880728 14.9576298,153.659774 18.6571981,153.296219 C19.821398,153.192346 20.9597267,152.958632 22.0980554,152.569109 C21.4512777,152.4133 20.7786289,152.283459 20.1577223,152.049745 C19.1487492,151.68619 18.2691315,151.062952 18.2173893,149.868415 C18.1656471,148.725813 18.9159092,148.076607 19.8472691,147.583211 C21.2184377,146.856102 22.6930908,146.596419 24.1936151,146.492547 C28.0225389,146.232865 31.6962361,146.908038 35.1888357,148.518068 C38.9142751,150.206001 42.2257768,152.517173 45.0198564,155.529486 C46.132314,156.724023 47.0119316,158.126308 48.0209048,159.424718 C49.0557491,159.24294 50.1940778,159.035195 51.3582776,158.853417 C52.0050553,158.749545 52.5742196,158.853417 52.7811885,159.658432 C52.8588018,159.944082 53.1951262,160.151828 53.4020951,160.385542 C54.5662949,161.632017 55.8339791,162.774618 56.8429523,164.124965 C61.0858139,169.682163 65.1734488,175.343234 67.9675284,181.783352 C68.0710129,182.043034 68.2262395,182.250779 68.4590795,182.640302 C70.037217,177.550533 71.8481945,172.746412 72.8054255,167.682611 C73.5815587,163.683505 74.4611764,159.736336 76.1427983,156.022882 C78.8075223,150.128097 82.3777348,144.934454 87.3191165,140.753571 C88.4315742,139.818715 89.5181606,138.831923 90.6564896,137.897067 C91.6137208,137.118021 92.6226939,136.468816 93.7610221,136.001388 C94.1490892,134.209581 95.0804491,132.547615 96.0894221,130.989522 C96.7361995,129.976762 97.4347196,128.98997 98.1332397,128.029145 C98.2884662,127.795431 98.4695641,127.561717 98.6247906,127.328004 C95.830711,123.199057 93.631667,118.628651 92.2604982,113.824532 C90.8375875,108.786697 90.3460358,103.567087 90.6564896,98.347475 C91.1480405,90.349265 93.3212132,81.8836264 98.8058884,75.8590005 C101.988034,72.3532913 106.386122,69.8084062 111.042921,68.8995187 C115.466881,68.0425676 120.071938,68.6138683 124.263058,70.2758341 C133.033363,73.7296067 139.940949,81.3642621 143.174837,90.1934557 C145.063428,95.3351619 145.684334,100.970265 145.11517,106.42359 C144.546006,111.850947 142.916126,117.434113 139.96682,122.056455 C139.708109,122.471948 139.397655,122.887439 139.087202,123.276962 C139.216557,124.861023 139.759851,126.419116 140.587726,127.795431 C140.639469,127.873336 140.691211,127.951241 140.717082,128.003177 C141.570829,128.652382 142.450446,129.249652 143.304192,129.872889 C143.511162,130.00273 143.692259,130.158539 143.873357,130.28838 C146.538081,130.366285 149.099321,131.041458 151.453591,132.469711 C152.643662,133.170852 153.212826,134.261517 153.238698,135.637833 C153.238698,136.001388 153.238698,136.390911 153.238698,136.780434 C153.419795,136.910275 153.549151,137.040116 153.704378,137.118021 C156.783039,138.390463 159.266666,140.519857 161.413968,142.960869 C165.346376,147.427402 168.140456,152.517173 168.735491,158.567767 C169.071816,161.943635 169.201171,165.319503 169.434011,168.721339 C169.511624,168.591498 169.666851,168.383752 169.718593,168.176007 C170.908664,164.48852 172.357446,160.904906 174.246037,157.50307 C174.737588,156.594182 175.25501,155.711263 175.772432,154.828344 C175.850046,154.672535 176.057014,154.594629 176.263983,154.386884 C177.505796,155.03609 178.721738,155.711263 179.989423,156.386437 C180.299876,155.295772 180.558587,154.231075 180.894911,153.218314 C181.852142,150.309874 183.611377,147.972735 186.017391,146.103023 C187.336817,145.090263 188.889083,144.752676 190.493092,144.54493 C191.657292,144.389121 192.847363,144.25928 194.011563,144.285248 C196.779771,144.337184 199.418624,143.739916 202.005734,142.80506 C202.523157,142.623283 203.06645,142.389569 203.609743,142.285696 C204.825685,142.051982 205.964014,142.155855 206.740148,143.454265 C207.257569,143.038774 207.749121,142.597314 208.292414,142.259728 C209.14616,141.688427 210.025778,141.117126 210.957138,140.701634 C211.94024,140.286143 212.975084,140.208238 213.854702,141.169062 C214.786062,140.62373 215.743292,140.156302 216.674652,141.272935 C217.631883,140.675666 218.563243,139.792747 219.753314,140.649698 C220.736417,141.376808 220.503576,142.389569 220.270736,143.454265 C220.607061,143.53217 220.891643,143.610075 221.202096,143.687979 C221.74539,143.843788 222.314554,144.025566 222.443909,144.700739 C222.599136,145.479786 222.081714,145.86931 221.564292,146.180928 Z M12.7585857,160.41151 C10.171475,160.021987 7.86894645,158.256149 4.73854247,158.905354 C6.73061773,160.177796 10.3008305,160.827001 12.7585857,160.41151 Z M47.1930294,159.762305 C47.1154161,159.632464 46.9860605,159.372782 46.8049627,159.165036 C42.277519,154.075265 36.8704576,150.387779 30.1439697,148.907591 C27.6862146,148.362258 25.2025883,148.310322 22.7189619,148.855654 C21.9428288,149.037432 21.0890823,149.167273 20.3388201,150.050192 C21.1666955,150.257938 21.7876021,150.439715 22.4085087,150.51762 C23.443353,150.647461 24.4781972,150.621493 25.4871704,150.777302 C26.108077,150.855207 26.7031125,151.114889 27.6344723,151.374571 C27.0135657,151.867968 26.6772414,152.205554 26.2891748,152.4133 C25.7200104,152.724918 25.0991038,152.9846 24.5040684,153.244283 C20.6234023,154.906249 16.6133807,155.737231 12.3963902,155.010122 C10.3267016,154.646567 8.28288416,154.023329 6.23906669,153.503965 C5.56641791,153.348155 4.91964023,153.166378 4.24699144,153.010569 C4.19524923,153.114442 4.16937812,153.218314 4.1176359,153.296219 C4.4798314,153.555901 4.8161558,153.841551 5.2042224,154.023329 C8.05004419,155.32174 10.9993504,156.230627 14.1297544,156.49031 C15.1645987,156.568214 16.199443,156.698055 17.2601584,156.77596 C17.2601584,156.905801 17.2342873,157.035642 17.2342873,157.139515 C13.4053634,157.50307 9.6281817,157.035642 5.87687119,155.996914 C7.73959091,156.853864 9.57643956,157.658879 11.4909015,158.308085 C13.32775,158.931322 15.242212,159.372782 17.1308028,159.892146 C15.6561497,160.099891 15.6561497,160.099891 15.1904698,160.541351 C15.3974386,160.619256 15.5526653,160.723128 15.7078919,160.723128 C20.9855978,161.164589 26.2374326,161.29443 31.3081695,159.346813 C32.8345649,158.749545 34.4385735,158.360021 36.0425822,157.918562 C36.5082621,157.78872 37.0256842,157.555006 37.5431064,158.204212 C36.5600043,159.294877 35.033609,159.424718 33.7659247,160.359573 C36.6376176,161.346366 39.3023417,162.411063 40.8028659,165.033853 C42.9760389,163.293982 45.0457275,161.554112 47.1930294,159.762305 Z M109.852851,81.1305482 C110.033948,81.2863574 110.215046,81.4421668 110.396144,81.597976 C110.913566,82.0394357 111.405117,82.4808952 111.922539,82.9223548 C112.931513,83.8052747 113.966357,84.6881938 114.97533,85.5711129 C116.941534,87.3369519 118.933609,89.1027901 120.899813,90.8686291 C124.702866,94.2704653 128.402435,97.7502062 132.050261,101.33382 C132.02439,101.255915 131.998518,101.152042 131.998518,101.074138 C130.808448,96.0103353 127.522817,91.8554211 123.745636,88.4276167 C121.75356,86.6358095 119.606259,84.9219077 117.355472,83.467688 C115.052943,82.0134675 112.569318,81.1565164 109.852851,81.1305482 Z M97.1501371,90.7907245 C97.2794931,90.972502 97.331235,91.1802477 97.3053636,91.3879933 C97.2794931,91.4918662 97.2794931,91.6217072 97.2536217,91.72558 C97.4347196,91.5438026 97.6158175,91.3879933 97.771044,91.2321841 C98.2884662,90.7128199 98.8058884,90.1934557 99.3491812,89.7000589 C100.461639,88.6872988 101.625838,87.726475 102.841781,86.8435559 C104.963212,85.2854626 107.239869,83.8831793 109.775237,83.1301004 C109.620011,83.0002594 109.438913,82.8444501 109.283686,82.7146091 C108.792136,82.2991177 108.326456,81.9615311 108.119487,81.3382939 C108.119487,81.2863574 108.093615,81.2603892 108.093615,81.234421 C102.919394,81.9095946 98.5730478,85.7528903 97.1501371,90.7907245 Z M118.053992,125.899752 C120.356521,125.146673 122.477952,123.978104 124.470026,122.57582 C126.203391,121.355314 127.729786,120.004967 129.256181,118.576715 C130.497994,115.798116 131.636323,113.019517 132.153746,109.981236 C132.619425,107.254573 132.697038,104.450006 132.127874,101.723343 C128.117852,98.3994114 124.107831,95.0495116 120.12368,91.6736436 C118.079863,89.9597418 116.061916,88.2458392 113.992228,86.583873 C112.957384,85.7269221 111.896668,84.8699712 110.861824,84.0130204 C110.680727,83.8831793 110.5255,83.7273701 110.344402,83.597529 C108.1971,85.1815898 105.8687,86.5319366 103.747269,88.1679346 C102.634812,89.0248855 101.548225,89.9078054 100.513382,90.8686291 C99.970088,91.3620251 99.4267944,91.8813893 98.909373,92.4007535 C98.4436927,92.8681812 97.9780124,93.5693237 97.3053636,93.7511012 C97.2018798,93.7770694 97.1242666,93.7770694 97.0466525,93.7770694 C96.141164,101.697375 95.5202572,110.240918 99.3491812,117.434113 C101.030804,120.576268 103.410945,123.380835 106.515478,125.120705 C110.111562,127.068321 114.225068,127.146226 118.053992,125.899752 Z M129.825346,127.977209 C130.316896,127.535749 129.592506,126.782671 129.100955,127.250099 C126.022293,130.080634 121.986401,131.586791 117.924636,132.287933 C117.277859,132.391806 117.53657,133.404566 118.209219,133.300693 C122.426209,132.547615 126.617328,130.937585 129.825346,127.977209 Z M132.981621,131.430981 C130.575608,132.729393 127.936755,133.404566 125.272031,133.846026 C124.625253,133.949898 124.883964,134.962659 125.556613,134.858786 C128.324822,134.391358 131.015417,133.664248 133.499043,132.339869 C134.094079,132.028251 133.576656,131.119363 132.981621,131.430981 Z M208.990934,149.323082 C207.412796,149.920351 205.782917,150.569556 204.153037,151.192793 C206.067498,151.374571 207.593894,150.725365 208.990934,149.323082 Z M212.63876,144.804612 C213.233795,144.077502 214.0358,143.53217 214.708449,142.882965 C214.889546,142.701187 214.99303,142.415537 215.122386,142.181823 C215.044773,142.129887 214.96716,142.051982 214.889546,142.000046 C213.828831,142.934901 212.690502,143.765884 211.759142,144.804612 C208.939192,147.920798 205.317236,149.478891 201.333086,150.309874 C201.126117,150.361811 200.867406,150.257938 200.634566,150.23197 C200.608695,150.128097 200.582824,150.024224 200.582824,149.920351 C201.203731,149.660669 201.824637,149.375019 202.445543,149.141305 C205.472463,147.998703 208.240672,146.466578 210.569071,144.155407 C211.060623,143.662011 211.552173,143.194583 211.500431,142.129887 C210.491458,142.831028 209.611841,143.376361 208.835707,144.025566 C205.731174,146.544483 202.109219,147.687084 198.202682,148.180481 C197.969842,148.206449 197.711131,148.050639 197.478291,147.972735 C197.45242,147.868862 197.45242,147.764989 197.426549,147.687084 C200.401726,146.856102 203.273419,145.843341 205.86053,144.181375 C205.808788,144.025566 205.782917,143.895725 205.731174,143.739916 C204.980912,143.921693 204.204779,144.025566 203.480388,144.25928 C200.401726,145.349945 197.245451,145.999151 193.933949,145.921246 C193.080203,145.895278 192.252327,145.973182 191.398581,146.025119 C188.733857,146.128992 186.4572,147.141752 184.775577,149.245178 C184.051186,150.154065 183.326796,151.08892 182.628276,152.049745 C182.421306,152.309427 182.240209,152.595077 182.162595,152.906696 C181.8004,154.205106 181.489947,155.529486 181.127751,157.035642 C182.757631,157.580974 184.413382,158.152276 186.043261,158.697608 C186.25023,158.489862 186.379586,158.411958 186.4572,158.308085 C188.319919,155.711263 190.881158,154.101233 193.882207,153.192346 C195.641442,152.647014 197.426549,152.309427 199.237526,151.919904 C200.608695,151.608285 201.979864,151.504413 203.351032,150.855207 C206.662534,149.245178 210.155133,147.89483 212.63876,144.804612 Z M218.459759,142.000046 C218.382145,141.974077 218.330403,141.922141 218.25279,141.896173 C216.338328,143.687979 214.423866,145.479786 212.483533,147.271593 C214.811932,146.232865 216.85575,144.83058 218.304532,142.701187 C218.433888,142.493442 218.408017,142.23376 218.459759,142.000046 Z M221.227968,144.752676 C219.908541,143.947661 219.598088,144.311216 218.666728,145.947214 C219.675701,145.609628 220.555319,145.453818 221.227968,144.752676 Z M179.032191,56.0712202 C183.766604,53.6302079 188.501017,51.2411322 193.23543,48.8520563 C194.218531,48.3586602 194.554856,48.5404377 195.020536,49.5012617 C195.408602,50.3062764 195.770798,51.111291 196.184736,52.0201786 C196.469318,51.942274 196.676287,51.8903375 196.883256,51.8124328 C198.15094,51.1891957 198.254425,51.1891957 199.0823,52.2798608 C199.599722,52.9550343 200.039531,53.6561762 200.556952,54.3832862 C200.996761,54.1755405 201.358957,53.993763 201.747023,53.8379537 C202.807739,53.3445576 202.988837,53.3705258 203.635614,54.2794133 C204.23065,55.1103963 204.825685,55.9933155 205.343108,56.8762349 C205.964014,57.9149635 205.834658,58.3044867 204.748072,58.9017557 C202.730126,60.018389 200.686308,61.0830858 198.668362,62.1737508 C197.478291,62.8229562 196.28822,63.4981298 195.12402,64.1473352 C199.10817,70.4576116 203.06645,76.6899833 207.050601,83.0002594 C207.930219,82.5328316 208.783964,82.0654039 209.663582,81.597976 C211.759142,80.4553746 213.880573,79.2868048 215.976133,78.1701716 C217.114461,77.5729026 217.399044,77.6508073 217.968208,78.7934088 C218.408017,79.6763281 218.770212,80.6111838 219.18415,81.4941032 C219.494603,82.1952449 219.261763,82.6886409 218.614986,83.0262276 C218.097564,83.3118779 217.55427,83.597529 216.933363,83.9351157 C217.55427,85.0257805 218.071692,85.9346678 218.563243,86.8435559 C219.442861,88.4535849 219.41699,88.5834259 217.890594,89.4923133 C217.606012,89.6481225 217.347302,89.8558682 217.010977,90.0636147 C217.476657,90.8945974 217.916466,91.6476754 218.330403,92.4267217 C219.028924,93.6991647 218.977181,93.8809422 217.709497,94.6599885 C217.192074,94.971607 216.648782,95.2832255 216.105488,95.5688758 C212.690502,97.3866512 209.301387,99.1784576 205.886401,100.996233 C205.62769,101.126074 205.394849,101.255915 205.136138,101.359788 C204.23065,101.749311 203.99781,101.697375 203.558001,100.840424 C203.144064,100.087346 202.807739,99.3082987 202.445543,98.5552206 C202.316188,98.3215068 202.160962,98.0877929 201.979864,97.7761744 C201.333086,98.0618247 200.763922,98.347475 200.168886,98.5811888 C199.289268,98.9187756 199.004687,98.8149027 198.564878,98.0098882 C197.943971,96.8932553 197.348935,95.7766215 196.676287,94.5041792 C195.977766,94.8937024 195.305118,95.2832255 194.606598,95.6208122 C193.908078,95.9843671 193.675239,95.9064625 193.287172,95.1533844 C192.899105,94.4522428 192.614523,93.6991647 192.252327,92.9980223 C191.916003,92.3488171 192.097101,91.9852621 192.692136,91.6217072 C195.175763,90.1155511 197.659389,88.5574577 200.117144,87.0253334 C200.505211,86.7916195 200.893277,86.5319366 201.177859,86.3241909 C197.633518,79.780201 194.140918,73.3400835 190.596577,66.7960932 C190.260252,66.9519025 189.846315,67.1596482 189.458248,67.3673939 C186.767653,68.821614 184.077058,70.2758341 181.386462,71.7300542 C180.118778,72.4052278 180.067036,72.3792596 179.265031,71.1847216 C178.876965,70.5874526 178.437156,70.0421202 178.100832,69.418883 C177.738636,68.821614 177.867992,68.5359636 178.514769,68.1983768 C179.109805,67.86079 179.70484,67.5232033 180.455102,67.0817436 C179.730712,66.0689831 179.083934,65.1600957 178.437156,64.2512081 C177.686894,63.1865113 177.764507,62.7710198 178.799352,62.069878 C179.265031,61.7582594 179.730712,61.472609 180.325747,61.109054 C179.70484,60.0962936 179.135676,59.1354696 178.566512,58.1746457 C177.867992,57.0839806 177.945605,56.6165527 179.032191,56.0712202 Z M216.260715,90.3752332 C211.759142,92.6864038 207.464538,94.8677341 203.144064,97.1010009 C203.635614,98.1916657 203.99781,99.1784576 204.748072,100.009441 C208.965062,97.6982697 213.10444,95.3870983 217.269688,93.0759269 C216.907493,92.1410714 216.597039,91.3100887 216.260715,90.3752332 Z M216.079617,84.2727024 C209.84468,87.5187294 203.687357,90.7128199 197.45242,93.9328786 C198.17681,95.101448 198.823589,96.1401764 199.470366,97.1529374 C205.524205,93.984815 211.422817,90.8686291 217.373172,87.726475 C216.959235,86.6098412 216.545297,85.5191765 216.079617,84.2727024 Z M193.287172,92.4007535 C193.597625,93.0499587 193.933949,93.7770694 194.347887,94.6859567 C202.13509,90.3752332 209.767067,86.1424135 217.502528,81.8836264 C217.140332,81.0526435 216.85575,80.37747 216.545297,79.6763281 C208.706351,83.9351157 201.048504,88.1419664 193.287172,92.4007535 Z M194.244403,64.6147631 C193.287172,65.1600957 192.30407,65.7054281 191.37271,66.2507607 C195.330989,72.6389417 199.185784,78.8713134 203.118192,85.1815898 C203.842584,84.7660984 204.618717,84.3246389 205.368979,83.8831793 C201.64354,77.4430616 197.969842,71.0808488 194.244403,64.6147631 Z M179.342644,68.9514551 C179.653098,69.5746922 179.989423,70.2498658 180.351618,70.9510076 C188.164692,66.4585064 195.874283,62.0439098 203.635614,57.5773767 C203.169935,56.6944573 202.807739,55.9673473 202.497286,55.3700784 C194.710082,59.9145161 187.052235,64.4070174 179.342644,68.9514551 Z M179.834196,63.6539391 C180.196391,64.6147631 180.532715,65.4976825 180.86904,66.4325382 C186.922879,62.667147 192.847363,58.9536921 198.797717,55.2402373 C198.332038,54.4092544 197.892229,53.6561762 197.426549,52.8511615 C191.527936,56.4867117 185.732808,60.0443572 179.834196,63.6539391 Z M179.989423,57.7072178 C180.325747,58.7199782 180.662071,59.654834 180.998396,60.6416262 C185.681066,58.0188364 190.260252,55.4739513 194.89118,52.9030979 C194.477242,52.0201786 194.166789,51.3190368 193.804594,50.5399903 C189.147795,52.9290661 184.59448,55.3181419 179.989423,57.7072178 Z M91.5878494,24.2861244 C91.2256537,19.897496 94.0197332,16.1840412 99.0387282,14.4961072 C99.0387282,14.3402979 99.0645995,14.1585204 99.0387282,14.0027111 C97.4088482,6.67967431 102.919394,-0.53948961 111.430989,0.0318111311 C116.036046,0.343429717 119.554516,2.70653733 122.296854,6.36805572 C122.581435,6.73161073 122.840146,7.12113396 122.995374,7.32887969 C124.54764,6.83548359 125.918808,6.23821464 127.36759,5.92659605 C129.411408,5.5111046 131.403484,5.95256427 133.214461,7.0172611 C136.112025,8.7311633 137.327967,11.9771902 136.293123,15.197249 C136.189638,15.5088676 136.086153,15.8204861 135.905056,16.2619459 C136.215509,16.3398505 136.396607,16.4177551 136.577705,16.4437233 C140.535984,16.8072783 143.821615,20.5986378 143.123094,25.5845352 C142.55393,29.5576722 139.320042,32.6998262 135.413505,33.0893495 C134.637371,33.1672541 133.835367,33.0893495 132.878136,33.0893495 C132.748781,33.4269363 132.645296,33.8683959 132.438327,34.2838874 C131.688065,35.8419803 131.015417,37.4779779 130.084057,38.932198 C129.411408,39.9968948 128.50592,40.9577188 127.522817,41.7367652 C124.599382,44.0739046 121.132654,43.8401907 118.46793,41.217401 C117.665925,40.4383544 117.045019,39.5034987 116.268886,38.5686429 C115.90669,38.8542933 115.544494,39.1399437 115.156428,39.3996258 C112.828028,41.0096552 110.29266,41.580956 107.524451,40.853846 C104.187078,39.9709266 101.936292,37.01055 101.936292,33.5567774 C101.936292,33.1932223 101.936292,32.8036991 101.936292,32.2843348 C98.831759,32.673858 96.0635508,32.0246526 93.8645067,29.6875132 C92.4157247,28.1553885 91.743076,26.3116453 91.5878494,24.2861244 Z M100.642737,29.8692908 C101.160159,29.8692908 101.677581,29.7913861 102.195003,29.7654179 C103.359203,29.7394497 103.747269,30.1809094 103.488559,31.3235108 C102.764168,34.6214742 104.67863,37.6597554 107.938389,38.3868654 C110.189176,38.8802615 112.207122,38.2310561 114.095713,36.9845818 C114.483779,36.7248997 114.845975,36.3873129 115.234041,36.1535989 C115.984303,35.7381075 116.656952,35.9198849 116.941534,36.7248997 C117.484828,38.2570243 118.700769,39.1399437 119.994325,39.9189902 C121.805303,41.0096552 123.668022,40.9317506 125.478999,39.8410855 C126.746684,39.062039 127.781528,37.9973422 128.454177,36.6729632 C129.204439,35.1668067 129.825346,33.5827456 130.39451,31.9986844 C130.886061,30.6483372 131.118901,30.4146233 132.515941,30.5964008 C136.215509,31.0638286 139.423526,28.7007211 140.122047,25.0132345 C140.872309,21.0141292 138.181714,17.8200387 134.119949,17.8719752 C133.059234,17.8979434 132.464199,17.0929287 132.826394,16.0801683 C132.981621,15.6387087 133.240332,15.2491854 133.42143,14.8077258 C134.223434,12.8860778 133.809496,11.0163663 132.283101,9.66601907 C129.980572,7.61453006 125.453129,7.38081612 122.91776,9.19859123 C122.141627,9.7439237 121.572462,9.69198728 120.951556,8.96487727 C120.666974,8.65325868 120.460004,8.26373546 120.201294,7.92614865 C118.312703,5.38126352 115.90669,3.58945666 112.828028,2.75847376 C107.938389,1.43409476 103.359203,3.45961558 101.263644,7.92614865 C100.772093,8.99084547 100.435768,10.133447 100.202928,11.2760484 C99.970088,12.4705864 99.9183461,13.7170607 99.8148615,14.9635351 C99.2974393,15.2751537 98.7800171,15.560804 98.2625948,15.8983908 C96.2963905,17.1708333 94.8734798,18.8587674 94.1749598,21.1180022 C92.7261777,25.7663127 95.830711,29.9212272 100.642737,29.8692908 Z M11.154577,89.7519953 C10.0421195,82.3510542 16.0442163,75.8849687 23.5209663,76.4303011 C24.6851661,76.5082058 25.8493659,76.5861105 27.1170502,76.6640151 C26.7289836,74.9241447 26.3150459,73.3660517 25.3578149,72.067641 C24.426455,70.7951984 23.4174819,69.6006605 22.4085087,68.3282179 C23.0294153,67.8348218 23.443353,68.094504 23.8572907,68.3022497 C25.4095571,69.1332326 26.832468,70.0940566 27.9966678,71.4444038 C28.1518945,71.6261813 28.3071211,71.7819906 28.5917033,72.0936092 C28.6951877,71.6781177 28.7986722,71.3924674 28.8504144,71.0808488 C29.2126099,69.3669466 29.5230631,67.6530443 29.9887431,65.9910785 C30.5579074,63.9136213 31.6962361,62.1218144 33.2485026,60.5896897 C33.6883115,60.1741982 34.1539914,59.7587068 34.6972846,59.4730564 C36.482391,58.460296 38.3451107,59.4470882 38.422724,61.5245454 C38.4485951,62.433433 38.1898841,63.394257 37.8535597,64.2512081 C36.8187154,66.7960932 35.3181911,69.0812962 33.4813426,71.1327852 C32.7310804,71.9637681 32.0843028,72.8466874 31.3857829,73.7036385 C31.4633962,73.7815432 31.5151384,73.8594478 31.5927518,73.9373525 C31.903205,73.755575 32.1877872,73.5997657 32.4982405,73.4179882 C32.6534671,73.3141153 32.8086938,73.2102424 32.9639204,73.1063696 C39.4834394,69.0033915 46.7790917,71.8858634 48.7711669,79.3906778 C49.6249134,82.584768 49.521429,85.8567632 49.2885891,89.1027901 C49.0040068,93.4135144 47.2189005,97.230842 44.942243,100.788487 C43.7521721,102.658198 41.8377102,103.567087 39.5869238,103.8008 C37.9570441,103.95661 36.3530354,104.268228 34.7231557,104.605815 C34.1798625,104.709688 33.6624403,104.995338 33.1708892,105.25502 C28.6693166,107.59216 24.2453573,107.124732 20.2094646,104.398069 C15.0611142,100.89236 12.0859369,95.8804943 11.154577,89.7519953 Z M30.221583,70.4835798 C33.1191471,68.3541861 36.1460666,63.5240981 35.9390977,61.1350222 C32.2395294,63.2644159 31.1270718,66.7181885 30.221583,70.4835798 Z M13.32775,88.0380936 C13.8969144,93.854974 16.3029274,98.7110299 21.0632111,102.216739 C21.761731,102.736103 22.5896065,103.151595 23.443353,103.437246 C26.0045926,104.268228 28.5658322,104.346133 31.2046851,103.644991 C33.9728936,102.917881 36.715231,102.112866 39.6127949,102.034961 C41.3979014,101.983025 42.8725545,101.04817 43.7521721,99.4641079 C45.8218607,95.7506532 47.2189005,91.8294529 47.0119316,87.466793 C46.882576,85.7788586 46.8049627,84.0649568 46.5721228,82.4029906 C46.2875406,80.37747 45.5890207,78.4817902 44.0884965,76.9756337 C40.9063503,73.7815432 38.3451107,73.3400835 34.309218,75.3656043 C33.2485026,75.8849687 32.2395294,76.4562693 31.178814,76.9756337 C29.9370009,77.5988709 28.6693166,77.8325848 27.2464057,77.7287119 C23.1070286,77.3911251 19.3298469,78.3779173 16.1735719,81.2603892 C14.1297544,83.078164 13.069039,85.337399 13.32775,88.0380936 Z M86.6464678,24.7795205 C86.5688545,24.3899973 86.4912413,24.000474 86.3877567,23.6109508 C86.3101434,23.2993322 85.9996904,23.1175547 85.7151079,23.2214276 C67.7864306,29.661545 53.2468684,40.5162591 41.9929368,55.8634745 C41.8377102,56.0712202 41.8635813,56.3309023 42.018808,56.5126799 C42.277519,56.8242985 42.5362301,57.1099488 42.7949411,57.4215674 C43.00191,57.6812495 43.4158477,57.6552813 43.5969455,57.3955992 C54.6180372,42.3340342 68.8988883,31.6870658 86.3101434,25.3767895 C86.5688545,25.2988848 86.724081,25.0392027 86.6464678,24.7795205 Z M181.696916,49.2415795 L183.119827,48.3067238 C183.378538,48.1249463 183.43028,47.7613913 183.19744,47.5276773 C173.547517,37.2442639 162.371199,29.6096086 149.228676,24.4159655 C148.866481,24.2601562 148.478414,24.5717748 148.530156,24.961298 C148.60777,25.4806623 148.659512,25.9480902 148.711254,26.4414863 C148.737125,26.6232638 148.866481,26.7790731 149.021707,26.8569777 C161.362225,31.9207798 171.99525,39.3736576 180.998396,49.1636749 C181.205365,49.3454524 181.489947,49.3714206 181.696916,49.2415795 Z M203.506259,137.066084 C206.481437,127.328004 207.852605,117.460082 207.568023,107.332478 C207.568023,107.020859 207.257569,106.787145 206.947116,106.839082 C206.248596,106.968923 205.575947,107.098764 204.851557,107.228605 C204.592846,107.280541 204.437619,107.488287 204.437619,107.747969 C204.69633,117.330241 203.351032,126.704766 200.556952,135.949451 C200.375855,136.572688 200.815664,137.221894 201.462442,137.27383 C201.979864,137.325766 202.471415,137.351735 202.962966,137.403671 C203.221677,137.455607 203.428646,137.299798 203.506259,137.066084 Z M24.6334239,111.487392 C24.9180061,122.004519 26.8065969,132.002283 30.454423,141.662458 C30.5320364,141.844236 30.687263,141.974077 30.8683607,142.000046 C31.2046851,142.051982 31.5151384,142.07795 31.8514628,142.129887 C32.2395294,142.181823 32.5499827,141.7923 32.3947561,141.428744 C28.8504144,131.794536 26.9618235,122.004519 26.7548547,111.824979 C26.7548547,111.617233 26.599628,111.409487 26.3926592,111.331583 C26.0304637,111.22771 25.6941393,111.097869 25.3060726,110.968028 C24.9697483,110.890123 24.6075528,111.149805 24.6334239,111.487392 Z M102.298488,22.0528578 C102.557199,22.2346354 102.893523,22.3644764 103.203977,22.4423811 C105.63586,22.9617454 108.067745,23.4811097 110.499629,23.9745058 C110.732468,24.0264423 110.965308,24.0524105 111.198149,24.0264423 C111.844926,23.9485376 112.41409,23.7667601 112.569318,23.03965 C112.698673,22.5202858 112.258864,21.9749532 111.534473,21.715271 C111.327504,21.6373664 111.068793,21.6113982 110.835953,21.58543 C110.085691,21.4815572 109.335429,21.4036525 108.611038,21.2997796 C107.757291,21.1699386 106.903545,21.0400975 105.946314,20.8842882 C106.153283,20.624606 106.179154,20.5207332 106.256767,20.4687968 C109.050847,18.9107038 111.844926,17.3526109 114.639006,15.8204861 C115.078815,15.560804 115.622108,15.4309629 116.010175,15.0933761 C116.346499,14.7817575 116.708695,14.2883614 116.734565,13.8469018 C116.786308,13.2236646 116.268886,12.8601096 115.699722,12.678332 C115.337526,12.5744592 114.97533,12.4705864 114.587264,12.4446182 C113.526548,12.314777 112.439962,12.2109042 111.353375,12.1329996 C109.620011,12.0031584 107.886647,11.8473492 106.153283,11.7694446 C105.687603,11.7434764 105.118438,11.6136352 104.833856,12.4446182 C107.343353,13.275601 109.878722,13.6131878 112.595188,14.3402979 C112.207122,14.59998 112.077766,14.7298211 111.896668,14.8077258 C108.89562,16.5475962 105.8687,18.2874667 102.867652,20.0273371 C102.634812,20.1571782 102.376101,20.3129874 102.169132,20.494765 C101.677581,20.9621928 101.729323,21.6633346 102.298488,22.0528578 Z M113.888744,18.1835937 C115.544494,19.7416867 117.795281,19.8455596 119.86497,20.8842882 C118.157477,22.1047943 116.579339,23.1954594 115.027073,24.3120926 C114.483779,24.7016159 113.888744,25.0132345 113.448935,25.4806623 C113.164352,25.7663127 112.957384,26.3635817 113.060868,26.7011685 C113.164352,27.0387553 113.707646,27.3763421 114.095713,27.4542467 C116.087788,27.7918335 118.079863,28.0774839 120.071938,28.337166 C120.511747,28.3891025 121.029169,28.337166 121.443107,28.1553885 C121.72769,28.0255475 122.064014,27.6360242 122.064014,27.3503739 C122.064014,27.0647235 121.701818,26.6752003 121.417236,26.5453591 C120.951556,26.3376135 120.408263,26.3116453 119.916712,26.2337406 C119.062965,26.0779313 118.183347,25.9480902 117.045019,25.7663127 C117.614183,25.2988848 117.950507,25.0132345 118.312703,24.7275841 C119.554516,23.7148237 120.848072,22.7799679 122.012271,21.6893028 C123.098858,20.6505742 122.762533,19.4820045 121.339622,18.9886085 C121.106783,18.9107038 120.899813,18.8327991 120.666974,18.8068309 C118.726641,18.5471488 116.760436,18.2874667 114.794232,18.0537527 C114.483779,18.0277845 114.173326,18.1316573 113.888744,18.1835937 Z M126.410359,24.7016159 C125.841195,25.3767895 125.194418,26.0259949 124.651124,26.7271367 C123.84912,27.7918335 124.237187,28.8824986 125.556613,28.9604032 C127.289977,29.0642761 129.023342,28.934435 130.756705,28.9084668 C130.937803,28.9084668 131.170643,28.8565303 131.274128,28.7266893 C131.532839,28.4410389 131.869163,28.0774839 131.895035,27.7398971 C131.895035,27.4802149 131.506967,27.0906917 131.222386,26.9868189 C130.808448,26.8310095 130.316896,26.8569777 129.825346,26.8310095 C129.23031,26.8050413 128.635275,26.8310095 127.678043,26.8310095 C128.221337,26.1298677 128.557661,25.6884081 128.919857,25.2469484 C129.566635,24.4938701 130.239283,23.7667601 130.86019,23.0136818 C131.222386,22.5981904 131.403484,22.1047943 131.067158,21.58543 C130.756705,21.1439704 130.316896,20.988161 129.825346,21.1699386 C128.091982,21.7672075 126.384489,22.3904446 124.676996,23.03965 C124.444156,23.1175547 124.3148,23.4551415 123.926734,23.9485376 C125.194418,23.7927283 126.099906,23.6628872 127.264106,23.507078 C126.87604,24.0524105 126.66907,24.3899973 126.410359,24.7016159 Z M19.8731402,93.4135144 C19.7955269,93.1278633 19.7437846,92.8941494 19.6661713,92.6864038 C18.6830692,89.8818364 18.6054559,87.1551745 20.080109,84.4804481 C20.2870779,84.1168932 20.4940468,83.7014018 20.5199179,83.3118779 C20.545789,82.948323 20.4940468,82.4289588 20.2612068,82.1952449 C20.1059801,82.0134675 19.4850736,82.0134675 19.2522336,82.1952449 C18.6054559,82.6367045 17.9069361,83.1041322 17.4671272,83.7273701 C15.8113764,86.1683817 16.3029274,90.8426609 18.372616,92.9720541 C18.7606826,93.3356098 19.0970069,93.7511012 19.8731402,93.4135144 Z" id="Shape" fill="#231E4A" fill-rule="nonzero"></path>
                </g>
            </g>
        </g>
    </g>
</svg>