<?xml version="1.0" encoding="UTF-8"?>
<svg width="400px" height="220px" viewBox="0 0 400 220" version="1.1" xmlns="http://www.w3.org/2000/svg" xmlns:xlink="http://www.w3.org/1999/xlink">
    <title>03 — Ik wil zinvol leven</title>
    <defs>
        <rect id="path-1" x="0" y="0" width="400" height="220" rx="4"></rect>
    </defs>
    <g id="03-—-Ik-wil-zinvol-leven" stroke="none" stroke-width="1" fill="none" fill-rule="evenodd">
        <g id="Group">
            <mask id="mask-2" fill="white">
                <use xlink:href="#path-1"></use>
            </mask>
            <use id="Mask" fill="#6F47D1" xlink:href="#path-1"></use>
            <g id="Group-2" mask="url(#mask-2)" stroke="#BBA2F8" stroke-width="2">
                <polyline id="Stroke-1" points="235 220 235 165 290.034 165 290.034 110 345.068 110 345.068 55 400 55.102"></polyline>
                <polyline id="Stroke-1" transform="translate(82.5, 82.5) scale(-1, -1) translate(-82.5, -82.5)" points="0 165 0 110 55.034 110 55.034 55 110.068 55 110.068 0 165 0.102"></polyline>
            </g>
            <g mask="url(#mask-2)" fill-rule="nonzero">
                <g transform="translate(122.5, 10.2)">
                    <path d="M50.844111,56.2573743 L50.844111,44.3281673 L52.3878056,30.7421259 C52.3878056,30.7421259 52.2970001,29.3262856 53.447204,24.0244158 C54.5974079,18.7225459 57.1702324,14.1436584 57.1702324,14.1436584 L68.6420031,2.78681229 L81.7785429,0.798611112 L94.1886378,4.77501347 L103.269194,12.004836 L107.809473,21.9458418 L107.809473,30.8324986 L107.083029,36.3452383 L110.352029,41.4663625 L110.352029,46.0452501 C110.352029,46.0452501 106.144705,49.630037 105.872288,49.630037 C105.599871,49.630037 103.602148,50.0216524 103.602148,50.0216524 L98.6683789,56.5284927 L99.3948235,59.4204216 L107.446251,58.6974394 L115.830632,62.8244631 L119.493124,68.9999364 L127.302403,72.3738535 L132.962617,79.9350426 L130.934625,90.4785341 L127.605088,92.4667356 L137.623969,107.046877 L144.525193,122.048759 L150.003796,140.213688 L149.337888,151.480161 L150.94212,165.819309 L153.333333,179.345102 L151.698833,194.346984 L144.676536,200.311587 L138.532025,201.667179 L132.357246,200.703202 L125.456023,202.269664 L123.4583,202.691404 C123.4583,202.691404 127.484014,214.891729 124.517699,215.946078 C121.551383,217.000427 99.3645554,215.554463 99.3645554,215.554463 L82.1417648,227.604167 L76.8145046,227.001682 L60.6813812,214.951978 C60.6813812,214.951978 26.8714398,216.277445 27.4162733,214.439865 C27.9913752,212.602285 27.8703011,205.191717 27.8703011,205.191717 L17.3368547,201.637054 L9.19462176,197.751025 L2.89876876,185.520575 L1.59722222,168.831735 L1.59722222,146.931398 L8.13522339,131.537901 L15.8536971,112.439119 L21.0598832,101.022025 L37.0416639,84.4838061 L51.4494814,76.6213743 L50.844111,56.2573743 Z" id="Path" fill="#FFFFFF"></path>
                    <path d="M93.9979262,3.40484624 C99.6063165,6.32928648 104.038754,11.1832543 106.571575,17.0019859 C107.988749,20.2279149 108.893328,23.7251836 109.074243,27.2827501 C109.164701,29.0615334 109.104397,30.8704655 108.772717,32.6190998 C108.501344,34.0059477 108.139512,35.3927957 107.234933,36.4480061 C109.194854,37.5635143 110.672334,39.6437862 111.154775,41.8145047 C111.697523,44.3470097 110.913554,46.9096635 109.255159,48.86934 C108.471191,49.773806 107.506307,50.4973788 106.420812,51.0099096 C105.275012,51.5224404 103.616616,52.1555666 102.470816,51.3415471 C102.410512,51.2812494 102.350206,51.2511006 102.289901,51.1908028 C101.536085,53.3916702 100.390285,55.4719422 99.2143318,57.4617674 C99.244485,57.8537028 99.2746374,58.245638 99.2746374,58.6375734 C101.867764,58.0345959 104.491043,57.8838516 107.144475,58.0948937 C111.66737,58.4566801 115.134923,60.5068032 117.486829,64.4261561 C117.939118,65.1798778 118.512019,65.8733018 119.024613,66.5667258 C120.441787,68.4359556 122.220793,69.5816126 124.633003,69.9132501 C127.889488,70.3654832 130.452461,72.1744153 132.38223,74.767218 C133.105893,75.7621306 133.678794,76.9680854 133.889862,78.1740401 C134.643678,82.2139888 134.311999,86.1936389 132.231467,89.811503 C131.417346,91.1983511 130.241393,92.3741574 129.125746,93.7610055 C129.366967,94.0624939 129.728798,94.5448758 130.09063,94.9971085 C134.734136,100.634947 138.533368,106.725019 141.005884,113.62911 C141.729547,115.709382 142.694431,117.669057 143.629163,119.658883 C146.192137,125.145977 148.091752,130.874262 149.629537,136.692994 C150.564268,140.190263 150.624574,143.71768 150.262742,147.305395 C150.081827,149.204774 149.900911,151.104153 149.810453,153.033681 C149.65969,156.681693 150.262742,160.23926 151.227627,163.736529 C152.403579,167.987519 153.519227,172.208361 153.881059,176.610096 C154.333348,181.644957 154.24289,186.679818 153.036784,191.533786 C152.705106,192.920634 152.252817,194.277333 151.619611,195.543585 C151.046711,196.719391 150.323048,197.895197 149.358164,198.739365 C145.528779,202.146187 141.096342,203.563184 136.000546,202.568272 C135.487951,202.447676 134.975356,202.236634 134.462762,202.025592 C134.040625,201.844699 133.618488,201.54321 133.256657,201.332168 C131.688719,201.995443 130.181088,202.779313 128.582998,203.291844 C127.045214,203.804375 125.386819,203.985268 123.698271,204.347055 C123.999798,205.854498 124.391782,207.331793 124.602851,208.839236 C124.904377,210.949657 125.17575,213.060078 125.356666,215.200648 C125.416972,215.863922 125.296361,216.617644 125.085292,217.28092 C124.874224,217.974343 124.271172,218.305981 123.517355,218.215534 C122.76354,218.155237 122.341403,217.642706 122.220793,216.949282 C122.145411,216.647793 122.174726,216.325368 122.186591,215.999453 L122.190639,215.803625 L122.190639,204.316906 C121.557434,204.226459 120.984535,204.166161 120.411634,204.075715 C118.30095,203.713929 116.160113,203.472738 114.109734,202.960207 C112.933781,202.688867 112.270423,202.839612 111.486455,203.804375 C106.330354,210.286382 100.571201,216.255858 94.3597578,221.742952 C92.641058,223.280545 90.8620527,224.757839 89.0227419,226.114538 C87.6055682,227.1396 86.0979365,228.044066 84.5299994,228.827936 C81.4544306,230.395677 78.2582512,230.395677 75.2128351,228.797787 C73.2529139,227.772726 71.26284,226.627069 69.5742924,225.179923 C65.5338395,221.712803 61.5838443,218.155237 57.7846124,214.446926 C56.0659122,212.764619 54.4666165,210.98463 52.8825177,209.185104 L51.2996249,207.381961 C50.7711096,206.780671 50.2404232,206.180106 49.7037063,205.583159 C48.7991273,204.588246 48.8292799,204.558097 47.502564,204.950033 C46.0853902,205.341968 44.6380638,205.733903 43.2208899,206.125838 C39.8437948,207.060453 36.4365471,207.361942 32.9689942,206.60822 C32.154873,206.427327 31.4613625,206.427327 30.7075466,207.060453 C30.1271083,207.530273 29.2679677,207.696092 28.3623766,207.999133 L28.11442,208.085515 L28.11442,212.487249 C28.11442,213.904246 28.9888464,215.321243 28.2651832,216.858835 C26.8480094,216.497049 26.4861777,215.441839 26.4560251,214.356479 C26.3957199,212.939483 26.546483,211.522485 26.6670935,210.105489 C26.7273988,209.412065 26.878162,208.718641 26.9987725,207.904621 C25.5815987,207.603133 24.1644249,207.39209 22.8075563,207.030304 C21.7220615,206.728816 20.6365667,206.33688 19.611377,205.82435 C17.4403874,204.769139 15.3598556,203.533035 13.1587133,202.538122 C10.6560446,201.392466 8.60566547,199.764427 6.97742321,197.53341 C3.41941233,192.679442 1.15796474,187.252647 0.223233071,181.313319 C0.0423172645,180.318407 0.072469899,179.233047 0.072469899,178.207986 C0.072469899,171.303895 0.162927803,164.399804 0.01216463,157.495713 C-0.168751177,148.752542 1.67055953,140.5219 5.37933357,132.653046 C5.77131782,131.808877 6.16330207,130.93456 6.58543896,130.12054 C9.78161818,124.120916 12.4350501,117.849951 14.2140555,111.277498 C16.0533662,104.524151 20.5461087,99.8812256 25.9434303,95.9015747 C26.4560251,95.5096396 26.9686199,95.0875552 27.3907567,94.6051734 C28.0541147,93.8816005 28.6571674,93.067581 29.2300674,92.2837107 C34.5670838,85.0781309 41.562495,80.0734188 49.5529431,76.4555546 C47.6834798,70.2147388 47.8945482,63.2503503 49.0101957,56.8587901 C48.980043,56.7381946 48.9498904,56.5874503 48.9197378,56.4367059 C48.0172383,51.60457 48.9980414,46.6038012 49.6366903,41.7871718 L49.7037063,41.2718251 L49.7941642,40.5784011 C50.1559958,37.7444074 50.54798,34.9104138 51.0304222,32.1065691 C51.2716433,30.5991256 51.5731697,29.121831 51.9048486,27.6445365 C52.2365276,26.1069442 52.4777487,24.5693519 52.8998855,23.0619085 C52.9300382,23.0016107 53.0506488,23.0016107 53.0506488,23.0920574 C53.1578581,25.1823789 53.0506488,27.3203431 52.9619694,29.4212519 L52.9300382,30.2071903 L52.8697329,31.3829962 C52.7792751,33.7044591 52.5983592,36.0259219 52.3571382,38.3473849 C52.1762223,40.0357215 52.0087077,41.7240581 51.836726,43.4123947 L51.5731697,45.9448997 L51.543017,46.1860907 C51.3319485,48.4171069 51.1208801,50.6481232 51.2113381,52.8791395 C51.2716433,54.2056897 51.4525591,55.4719422 51.8143907,56.6778968 C51.8445434,56.6778968 51.8445434,56.7080458 51.874696,56.7381946 C51.9350013,56.7381946 52.0254592,56.7381946 52.0857644,56.7080458 C57.814765,57.3110231 55.01057,51.2812494 60.8300285,49.8039549 C61.1918601,49.7436571 61.5838443,49.6833594 61.9758286,49.6532105 C59.7746862,47.7839807 60.04606,43.4425436 63.9055972,42.7792685 C64.5991078,42.658673 64.8704814,43.4123947 64.5388025,43.6535857 C63.2723918,44.4073074 61.4029285,46.1559418 62.7296444,48.0251716 C64.2975814,49.6833594 66.559029,47.7839807 67.6746765,46.9398124 C68.699866,46.2765373 69.8758188,47.9648739 68.9109345,48.7487445 C68.3078818,49.2009775 67.7651344,49.532615 67.2223869,49.8039549 C70.7803978,50.3164856 74.2781034,51.7636313 75.5746668,54.5976249 C77.2330616,62.0745443 85.7361042,56.8587901 88.5402994,52.9695861 C91.4952579,49.4421685 93.4250266,45.1007314 95.2944897,40.9100386 C95.6864736,40.0357215 96.8925793,40.6688477 96.771969,41.5130161 C98.4906688,44.949987 98.4303641,49.1105309 98.8525003,52.8791395 C98.9128058,53.5122657 98.9731114,54.2056897 99.0334161,54.8991137 C100.088758,53.6328612 101.113948,52.3364598 102.199443,51.1305051 C101.837611,50.6782721 101.717001,50.014997 102.229596,49.6230616 C103.043717,48.9597865 103.948296,48.9899354 104.883028,48.5980001 C105.636843,48.2965115 106.300201,47.7839807 106.873101,47.1810033 C107.988749,46.0353463 108.621954,44.4073074 108.380733,42.8094174 C108.139512,41.1512296 107.054017,39.7040839 105.697149,38.769469 C104.973486,38.2569382 104.189517,37.8951518 103.31509,37.6841097 C102.470816,37.4730676 101.204406,37.2620256 100.420437,37.6539609 C100.360132,37.6841097 100.299827,37.623812 100.32998,37.5635143 C100.933032,36.3575595 101.747153,35.8148798 103.104022,35.6038378 C104.008601,35.4530934 104.91318,35.5736889 105.787606,35.8450288 C105.684226,35.1472978 105.69161,34.4495669 105.733806,33.7518359 L105.757454,33.4029704 L105.817759,32.7095464 C105.908217,31.2925496 105.968522,29.8454039 105.908217,28.3982582 C105.787606,25.5642646 105.244859,22.7604167 104.310127,20.0771705 C102.440664,14.7709697 98.8223479,10.1280439 94.0280794,7.17345479 C89.2338101,4.21886568 83.5349619,2.89231547 77.9265722,3.31439963 C72.5292506,3.73648379 67.3429975,6.05794666 63.3025444,9.67581091 C61.0109442,11.725934 59.051023,14.1679923 57.5132386,16.8512416 C56.8671107,18.0141265 56.1988299,19.1548612 55.6223257,20.3304034 L55.342249,20.9213388 L55.1311805,21.4037207 C54.8899594,21.9464004 54.6185858,22.5192289 54.4075173,23.0920574 C54.1059909,23.875928 53.6537014,24.4789053 53.442633,25.2929247 C53.4124804,25.3833714 53.2315645,25.3833714 53.2315645,25.2627759 C53.2617172,24.5392031 53.0506488,23.875928 53.0808014,23.1523551 C53.110954,22.3684846 53.2315645,21.584614 53.3521751,20.8308922 C53.5933961,19.3535977 54.0456857,17.906452 54.6185858,16.519604 C55.7945385,13.7157592 57.5735439,11.1832543 59.6239231,8.98238687 C63.7849866,4.46005663 69.363224,1.32457431 75.4540562,0.359810513 C81.7861098,-0.635102148 88.3292312,0.450257118 93.9979262,3.40484624 Z M91.7364792,121.920048 C87.3934946,124.951015 84.0930202,128.911672 81.3992689,133.420752 L81.1227514,133.889149 L80.9560741,134.174865 C80.6754877,134.65292 80.3739609,135.155402 79.946799,135.909124 C79.4643566,135.095104 79.1628302,134.522276 78.8311512,133.979595 C75.6048194,128.432204 71.504061,123.72898 65.9258237,120.442754 C58.719344,116.221912 51.0907275,115.227 43.1605846,118.030844 C36.1048682,120.503051 31.0090729,125.387168 27.54152,131.899324 C22.747251,140.883687 21.8125194,150.410729 24.0438144,160.299558 C25.1896145,165.274121 27.54152,169.706005 29.9838833,174.137888 C30.918615,173.745953 31.7025835,173.354018 32.5167046,173.112827 C35.0495259,172.359105 36.5873103,173.8364 35.863647,176.338756 C35.5319681,177.514562 34.8987628,178.63007 34.3560153,179.775727 C34.1449469,180.22796 33.8434206,180.619895 34.1750996,181.132426 C35.0796785,182.489125 35.9842576,183.845824 36.9491419,185.29297 C39.7834895,183.092102 41.7434108,180.529449 42.6479899,177.152776 C43.0098215,175.765928 43.3716531,174.409229 43.8239426,173.05253 C44.36669,171.364192 45.6934059,170.550174 47.3518009,170.218536 C48.9498904,169.917047 50.1559958,170.761215 50.4876748,172.359105 C50.6082853,172.871636 50.638438,173.414316 50.6987433,174.047442 C52.1762223,173.655507 53.5632435,173.534912 54.8598068,174.439377 C56.075963,175.268471 56.2786558,176.5029 56.4201184,177.794329 L56.4578964,178.147688 C56.8498807,178.08739 57.1212544,178.057242 57.3926281,178.027093 C59.9857547,177.816051 61.3727758,179.022006 61.3426232,181.614808 C61.3426232,182.790614 60.9807916,183.966419 60.7697232,185.142226 C60.6792653,185.534161 60.5586547,185.926096 60.4380442,186.34818 C60.7094179,186.438627 60.8903337,186.468775 61.0410969,186.498925 C64.1468182,186.981307 65.322771,188.940983 64.2372762,191.925721 C63.5136129,193.915546 62.3376602,195.634032 60.7998758,197.081178 C58.2670545,199.462938 55.4930122,201.482912 52.3571382,203.020504 C51.874696,203.261695 51.4224065,203.533035 50.9399643,203.774226 C51.0605749,203.985268 51.0907275,204.075715 51.1510328,204.166161 C55.9453016,209.592958 60.8300285,214.929308 66.3479605,219.632531 C69.694903,222.496673 73.3132191,224.908583 77.2029089,226.988855 C79.0723724,227.983768 80.7307675,227.983768 82.6002307,226.988855 C86.8215996,224.72769 90.7414417,222.044441 94.3296054,218.878809 C99.9983004,213.934395 105.003638,208.326706 109.94867,202.688867 C110.159739,202.477825 110.280349,202.176336 110.612028,201.874848 C110.039128,201.603508 109.556686,201.332168 109.074243,201.090977 C105.003638,199.010705 101.566238,196.146563 98.8826535,192.468401 C98.0383794,191.322743 97.3750218,190.056491 96.771969,188.76009 C96.2292217,187.644582 96.2292217,186.408478 96.7116635,185.232672 C97.1338005,184.237759 97.9780738,183.815675 99.0334161,183.634783 C98.4303641,181.705254 98.4906688,179.896323 99.0032637,178.147688 C99.5158586,176.368905 100.601353,175.735778 102.470816,175.976969 C102.62158,176.007118 102.802496,175.976969 103.043717,175.976969 C103.224633,174.680568 103.556312,173.414316 104.702112,172.570148 C105.847912,171.725979 107.08417,171.665682 108.35058,172.509849 C108.471191,172.057617 108.531496,171.786277 108.652107,171.545086 C109.074243,170.640619 109.37577,169.675856 109.978823,168.922135 C111.395997,167.083054 113.717749,167.505137 114.471566,169.675856 C114.712786,170.339131 114.893702,171.062704 114.98416,171.756128 C115.225381,173.293721 115.768128,174.771015 116.70286,175.976969 C118.451713,178.207986 120.291024,180.378704 122.130335,182.549423 C122.612777,183.122252 123.276135,183.484038 123.939492,184.026718 C125.115445,182.217785 126.170787,180.559598 127.316587,178.810963 C126.77384,178.328581 126.32155,177.936646 125.869261,177.544711 C125.386819,177.122626 124.874224,176.670394 124.452087,176.188012 C123.215829,174.771015 123.155524,172.992231 124.421935,171.756128 C125.024987,171.1833 125.869261,170.761215 126.683382,170.520024 C128.311625,170.037643 129.909714,170.399429 131.477651,171.1833 C131.718872,170.791365 131.929941,170.489875 132.110857,170.158238 C134.824594,165.06308 136.482989,159.636283 136.905125,153.877849 C137.508178,145.436166 135.879936,137.507014 131.447498,130.241136 C128.462387,125.357019 124.512393,121.437667 119.265834,119.055906 C109.556686,114.624022 100.360132,115.920423 91.7364792,121.920048 Z M47.4422587,172.871636 C46.4773744,172.901785 46.1155428,173.474613 45.9044743,174.10774 C45.602948,174.982057 45.271269,175.856374 45.0903532,176.76084 C44.1857742,181.192724 41.7132581,184.659844 38.4869263,187.67473 C36.9189893,189.152025 35.0193733,189.755003 32.9086889,189.604258 C31.3407519,189.513812 30.1647991,188.729941 29.6522043,187.252647 C29.350678,186.37833 29.2300674,185.353267 29.2903727,184.388504 C29.4109833,182.428827 30.345715,180.74049 31.3407519,179.082303 C31.9438045,178.08739 32.486552,177.03218 33.2102152,175.675481 C31.6422782,175.976969 30.7980044,176.730691 30.0140359,177.544711 C26.9384672,180.830937 24.7674776,184.689992 23.5613722,189.03143 C22.5663353,192.649294 22.50603,196.267158 23.8930511,199.854874 C24.5865617,201.633657 25.7926671,202.779313 27.5113673,203.382291 C28.6873201,203.774226 29.9537307,204.015417 31.1899887,204.196311 C34.1147943,204.618395 37.0697524,205.130925 39.994558,204.286757 C43.1907372,203.352142 46.4170691,202.447676 49.5227905,201.27187 C52.9601908,199.975469 56.1262175,198.106239 58.9304125,195.573734 C60.5285021,194.156737 61.7346074,192.468401 62.4281181,190.478576 C62.8201024,189.363068 62.4884233,188.579196 61.4632338,188.006368 C60.287281,187.343093 59.6842284,187.523986 58.8098019,188.518899 C57.3926281,190.116789 55.9453016,191.68453 54.4075173,193.161825 C53.1712593,194.36778 51.5731697,195.061203 49.9147748,195.483288 C49.5830958,195.543585 49.2212642,195.392841 48.8594326,195.332543 C48.980043,194.940607 49.0101957,194.458226 49.2514168,194.217035 C49.8243168,193.644207 50.4876748,193.131676 51.1510328,192.649294 C53.3823277,190.991106 55.1613331,188.910834 56.5483544,186.529074 C57.2720176,185.262821 57.6941545,183.815675 58.146444,182.428827 C58.2972071,181.946445 58.1162914,181.343468 58.0861387,180.77064 C55.9754543,180.981681 55.1311805,181.584659 53.683854,183.333293 C51.8445434,185.594458 49.97508,187.795326 48.0453114,189.966044 C47.5628693,190.538873 46.8995113,190.991106 46.2663059,191.383042 C46.0250849,191.533786 45.602948,191.41319 45.1506585,191.41319 C45.3918796,190.08664 46.1456955,189.212322 46.839206,188.307857 C48.8292799,185.775352 50.7590485,183.182549 52.0857644,180.197811 C52.447596,179.383792 52.7792751,178.569772 52.9903435,177.725604 C53.2315645,176.76084 52.6888171,176.21816 51.7239328,176.459351 C51.3017959,176.579947 50.8193538,176.730691 50.54798,177.03218 C50.0052327,177.635157 49.4624852,178.268284 49.070501,178.961707 C47.2914956,182.217785 45.4521848,185.443714 42.8892109,188.21741 C42.6781425,188.428452 42.3464635,188.579196 41.7735634,189.001281 C41.9846319,188.277708 42.0449371,187.976219 42.1655477,187.704879 C43.8842479,184.237759 45.5124901,180.680193 47.4121061,177.30352 C48.3468378,175.675481 47.7136325,174.348931 47.4422587,172.871636 Z M95.3849476,73.6517098 C95.0532685,74.0134963 94.7215893,74.3451338 94.3296054,74.6767713 C90.1383889,81.5808619 85.4345782,88.0025713 77.8964196,91.7711796 C78.2280986,93.8816005 78.5899302,95.9618723 78.8311512,98.0722932 C79.7960356,106.242637 79.675425,114.382831 78.0471827,122.462728 C77.9265722,122.94511 77.866267,123.457641 77.6551985,123.879725 C77.534588,124.120916 77.1426037,124.422405 76.9315353,124.362107 C76.6300089,124.301809 76.29833,124.00032 76.1475668,123.698832 C76.0269562,123.427492 76.0571088,123.065706 76.0571088,122.734068 C76.0269562,119.990521 75.9968036,117.246974 76.0571088,114.503427 C76.2380247,107.659633 76.4490931,100.81584 76.6601616,93.9720472 C76.6601616,93.4293678 76.5998563,92.8866876 76.5697037,92.2535615 C76.207872,92.193264 75.9063457,92.1329664 75.6048194,92.1329664 C73.7956613,92.0425197 72.3483348,91.1380535 71.2025347,89.8416521 C69.9662767,88.4246557 68.8204766,86.9172117 67.7651344,85.3796194 C61.3124706,85.3796194 55.1311805,83.6912828 50.9098117,79.8925254 C50.7590485,79.560888 50.6082853,79.1991016 50.4575222,78.8674641 C43.1907372,82.2139888 36.7682261,86.8870634 31.2804466,92.8866876 C30.2251044,94.0021964 29.1396096,95.0875552 28.0842673,96.2030632 C27.782741,96.5347009 27.451062,96.8361893 27.1796884,97.167827 C25.1594618,99.7606298 23.1693879,102.353433 21.1491614,104.946235 C19.8224455,106.664721 18.8274085,108.564099 18.2846612,110.644371 C16.1136714,118.754417 12.7365764,126.291635 8.78658124,133.678107 C5.89192836,139.074754 3.93200711,144.833188 3.29880179,150.953408 C2.99727545,153.727105 2.90681754,156.530949 2.87666491,159.334794 C2.786207,165.394716 2.72590174,171.484788 2.786207,177.57486 C2.84651227,185.142226 5.83162309,191.624233 10.5354341,197.382666 C11.6812342,198.769514 13.2491712,199.613683 14.8774135,200.276957 C16.4151978,200.879935 17.9831348,201.362317 19.5209192,201.935145 C20.6667193,202.387378 21.8125194,202.930058 22.9583195,203.382291 C23.410609,203.563184 23.8930511,203.653631 24.6167144,203.834524 C24.1945775,202.960207 23.9232038,202.266783 23.5010669,201.663805 C20.4858035,197.352518 20.5159561,192.619145 21.7522141,187.795326 C22.6869457,184.147313 24.3453407,180.830937 26.7273988,177.755753 C26.4258725,177.484413 26.1544987,177.213073 25.883125,177.002031 C24.9483934,176.278459 23.9533564,175.554886 23.0186248,174.801164 C20.6667193,172.901785 18.133898,171.454639 15.2090925,170.700918 C13.3697817,170.218536 11.8018447,169.253772 10.5354341,167.806627 C10.2037551,167.44484 9.78161818,166.962458 10.2339077,166.540374 C10.5052815,166.269034 11.1686394,166.148438 11.530471,166.269034 C13.6411555,166.992607 15.7518398,167.836775 17.8323716,168.650794 C18.2243559,168.801539 18.6163401,168.982432 19.2495454,169.223623 C19.0987823,168.711092 19.0686297,168.349306 18.8877138,168.077966 C17.560998,166.027843 16.2945873,163.887273 14.7869556,161.957746 C12.9777975,159.636283 11.4098605,157.224374 10.2037551,154.571273 C10.0529919,154.269784 9.84192346,153.968296 9.81177086,153.666807 C9.78161818,153.30502 9.81177086,152.852788 10.0228393,152.641745 C10.4148235,152.219662 10.8369604,152.551298 11.1686394,152.852788 C11.2289447,152.913085 11.3194026,153.003532 11.3797079,153.093979 C11.9778972,153.881739 12.5854995,154.663225 13.1931524,155.444509 L13.9217609,156.382341 C16.8314987,160.13639 19.6561197,163.941736 21.3602299,168.469901 C21.6617562,169.253772 21.8125194,170.037643 22.0537405,170.821513 C22.1441984,171.092853 22.2045037,171.364192 22.3854194,171.545086 C24.0438144,173.203274 25.7323619,174.861461 27.3907567,176.4895 C28.2651832,176.097565 28.11442,175.615183 27.782741,175.012206 C26.9384672,173.534912 26.0941935,172.057617 25.310225,170.550174 C19.0686297,158.279584 18.375119,145.828101 24.1041196,133.195725 C25.973583,129.06533 28.6873201,125.477615 32.0644151,122.432579 C42.9796688,112.573899 58.478123,112.151815 69.9964293,121.437667 C73.7956613,124.512851 76.8109247,128.221162 79.0120671,132.592748 C79.2532881,133.07513 79.5246618,133.557512 79.8563408,134.190638 C80.248325,133.406768 80.5800041,132.773641 80.9116833,132.170664 C85.5551885,123.608385 92.3998367,117.699207 102.018527,115.498339 C111.456301,113.327621 119.838735,115.799828 127.105519,122.040644 C133.678794,127.708631 137.41772,135.034806 138.834894,143.536787 C140.493289,153.30502 138.804741,162.500425 134.070778,171.1833 C133.859709,171.514937 133.708946,171.876723 133.52803,172.208361 C133.437572,172.359105 133.377267,172.509849 133.256657,172.78119 C133.52803,173.142976 133.859709,173.56506 134.191389,173.956995 C135.849783,172.811339 137.327262,171.635532 138.955505,170.670769 C142.664279,168.439753 142.784889,168.439753 143.930689,168.680944 C144.081453,169.404516 143.4784,169.615558 143.056263,169.917047 C141.126494,171.273746 139.166573,172.600296 137.236804,173.926847 C136.633751,174.318782 136.060852,174.740866 135.397493,175.193099 C136.332225,176.700542 137.176499,178.147688 138.050925,179.594834 C139.829931,182.579572 140.583747,185.865799 140.493289,189.332918 C140.46502,191.057057 140.065734,192.675203 139.220894,194.187357 L139.045963,194.488375 L138.675227,195.097038 C137.434915,197.124781 136.126639,199.123078 134.070778,200.548297 C135.24673,201.151275 137.116194,201.362317 138.925352,201.00053 C141.337563,200.548297 143.568858,199.643831 145.589084,198.287132 C147.880684,196.779689 149.08679,194.548672 149.750148,191.986019 C150.775337,188.006368 150.956253,183.966419 150.9261,179.745578 C150.835642,175.253396 150.172285,170.791365 148.996332,166.449927 C147.247479,160.028218 146.734884,153.516063 147.579158,146.91346 C148.152058,142.632321 147.579158,138.501926 146.403205,134.40168 C144.955879,129.396968 143.327636,124.482702 141.005884,119.779478 C140.16161,118.121291 139.347489,116.402805 138.774589,114.654171 C136.905125,109.046481 133.829556,104.132216 130.271546,99.5194388 C125.416972,93.1881769 120.140261,87.2488494 113.83836,82.3044347 C110.099433,79.349846 106.119286,76.8776388 101.415474,75.7922795 C101.264712,75.7621306 101.113948,75.7621306 100.842575,75.7319818 C100.691811,76.1239171 100.510895,76.5158524 100.360132,76.9077876 C99.0032637,80.6763965 96.9227316,83.9927721 94.2391475,86.9473609 C93.3948734,87.8819755 92.3696844,88.6356975 91.3746469,89.4195678 C91.0128153,89.7210571 90.5303736,90.0225455 89.9574731,89.3291211 C90.7414417,88.3040598 91.5857158,87.2789985 92.3395312,86.1634905 C93.0933474,85.0479818 93.7868581,83.8420271 94.4200633,82.6360724 C95.0532685,81.4301177 95.6261689,80.1940146 96.2292217,78.9579107 C96.8624269,77.751956 97.4956321,76.5460012 98.1589896,75.2495998 C97.2242584,74.7069203 96.3196796,74.1943895 95.3849476,73.6517098 Z M111.818134,170.09794 C110.491417,171.243597 110.008975,172.600296 110.461265,174.228335 C110.732638,175.16295 111.09447,176.127714 111.607065,176.941733 C113.325765,179.655132 115.165076,182.338381 116.944082,185.02163 C117.215455,185.443714 117.547134,185.865799 117.999424,186.468775 C116.642555,186.167287 116.642555,186.197436 115.888739,185.473863 C113.205154,182.911209 110.913554,180.047067 109.37577,176.670394 C108.863175,175.524737 108.139512,175.012206 107.023864,174.740866 C106.119286,174.529824 105.606691,174.740866 105.576538,175.675481 C105.546385,176.459351 105.606691,177.363817 105.968522,178.057242 C106.722338,179.564685 107.506307,181.132426 108.621954,182.36853 C110.853249,184.870886 113.295612,187.1622 115.617366,189.54396 C115.828434,189.785151 116.00935,190.056491 116.220418,190.327831 C115.647518,190.418278 115.225381,190.35798 114.893702,190.146938 C113.205154,189.03143 111.486455,187.94607 109.888365,186.709966 C107.747528,185.02163 105.727301,183.122252 104.491043,180.619895 C103.857838,179.353643 102.862801,178.810963 101.505932,178.539624 C100.691811,180.167662 100.601353,181.735403 101.566238,183.242847 C101.988375,183.936271 102.531122,184.539248 103.073869,185.172374 C105.576538,188.066666 108.260122,190.780064 111.546759,192.920634 C109.134549,192.679442 107.023864,191.68453 105.184554,190.207235 C103.616616,188.940983 102.199443,187.493838 100.752117,186.07684 C100.360132,185.684905 99.9379957,185.112077 99.3952476,185.443714 C99.0334161,185.654756 98.8525003,186.34818 98.8223479,186.830562 C98.7921956,187.282795 98.9429582,187.825475 99.1540271,188.247559 C99.5761642,189.061578 99.9983004,189.905747 100.571201,190.62932 C103.405548,194.337631 106.842949,197.382666 111.034165,199.462938 C116.00935,201.904996 121.316213,202.899909 126.834145,202.055741 C130.723835,201.452764 134.161235,200.005618 136.241768,196.267158 C137.809705,193.372867 139.076115,190.538873 138.684131,187.101902 C138.673276,187.007838 138.662518,186.913869 138.651761,186.820017 L138.586488,186.258448 C138.341693,184.205585 138.0063,182.227433 136.573447,180.529449 C135.24673,178.961707 134.161235,177.152776 132.864672,175.554886 C132.231467,174.740866 131.35704,174.10774 130.542919,173.474613 C129.457425,172.630445 128.191014,172.630445 126.924603,172.901785 C125.62804,173.173125 125.356666,174.077591 126.231093,175.042355 C126.743688,175.615183 127.376893,176.067416 127.889488,176.640245 C128.794066,177.635157 129.728798,178.660219 130.542919,179.745578 C131.176125,180.619895 131.35704,181.644957 131.11582,182.730316 C130.482614,185.715054 127.708572,187.523986 124.693309,186.830562 C123.155524,186.468775 121.828808,185.654756 120.803619,184.5091 C119.084918,182.60972 117.426523,180.619895 115.798281,178.63007 C114.139886,176.610096 112.994086,174.318782 112.602102,171.69583 C112.511644,171.123001 112.481491,170.489875 111.818134,170.09794 Z M32.7880783,183.242847 C32.154873,184.328206 31.4915151,185.443714 32.3960941,186.37833 C32.9689942,186.981307 33.8735732,186.740116 34.7479996,186.287883 C34.054489,185.202523 33.4212837,184.20761 32.7880783,183.242847 Z M128.522693,181.04198 C127.587962,182.157488 126.803993,183.212698 126.291398,184.629695 C128.311625,183.906122 128.884524,183.001656 128.522693,181.04198 Z M99.2746374,60.1148679 C99.3047897,64.4261561 98.7318901,68.8580398 96.5307477,72.2045642 C97.8273112,72.2950107 99.0635692,72.3553085 100.269674,72.6266483 C101.958222,73.0185836 103.616616,73.5612633 105.244859,74.1943895 C108.863175,75.5812374 112.11966,77.6012116 115.074618,80.0734188 C118.964308,83.2993477 122.823845,86.5554257 126.080329,90.4446299 C126.291398,90.6858208 126.562772,90.8667134 126.803993,91.077756 C129.668493,87.6106362 130.723835,83.6912828 129.97002,79.349846 C129.819256,78.415231 129.336814,77.4504673 128.733762,76.7268944 C127.467351,75.1591533 125.808956,74.0436452 123.758577,73.7723053 C120.411634,73.3200723 117.999424,71.5111402 116.160113,68.797742 C115.43645,67.7123828 114.712786,66.6270235 114.049428,65.4813665 C112.571949,62.9187127 110.310501,61.4112692 107.476154,60.6876964 C104.762417,59.9942724 102.018527,59.843528 99.2746374,60.1148679 Z M85.3742727,81.3999693 C81.1227514,83.5103902 76.1475668,84.8972375 71.2025347,85.349471 C71.7151295,85.9825971 72.2277243,86.5855741 72.7403191,87.218701 C72.9815401,87.5201895 73.2830665,87.7613804 73.5845929,88.0025713 C74.7002403,88.9673351 75.9063457,89.2386752 77.2029089,88.4246557 C78.5597775,87.5201895 80.0071037,86.7061699 81.2433617,85.6509595 C82.7509941,84.3545581 84.1078623,82.9074125 85.3742727,81.3999693 Z M70.6597873,58.0345959 C70.026582,58.6375734 69.2727661,59.1501041 68.458645,59.4817416 C67.795287,59.7832303 67.0716238,59.9339747 66.3178079,59.9641236 C66.3479605,59.9942724 66.4082658,60.0545701 66.4384184,60.0847191 C66.9811659,60.6876964 67.1922343,62.0745443 68.0365081,62.3458842 C69.1220029,62.7076706 70.2376504,61.5318647 70.599482,60.6273986 C70.931161,59.632486 70.9010084,58.7581688 70.6597873,58.0345959 Z M60.7094179,56.2256639 C59.714381,57.4617674 59.051023,59.2104018 59.0208703,60.2656122 C58.9605651,61.2906737 59.8349915,62.7981172 61.0109442,62.0142466 C61.855218,61.2303761 62.7899497,60.0244213 63.8452919,59.5118906 C63.181934,59.2104018 62.5487286,58.8184665 62.0059812,58.3059358 C61.3727758,57.7331073 60.9204864,57.0095344 60.7094179,56.2256639 Z M62.1567443,55.0800068 C62.0361339,55.1403046 61.9155233,55.2006023 61.7949127,55.2910489 C61.9155233,55.3814955 62.0059812,55.502091 62.1265917,55.6226865 C63.1216287,56.6175991 64.0563603,57.341172 65.4132289,57.4919164 C66.1368921,57.5522141 66.8304027,57.4316186 67.4334554,57.1301299 C67.9762028,56.8587901 68.4887976,56.4668548 68.8807819,55.9844729 C66.9811659,54.8689648 64.1468182,54.6277738 62.1567443,55.0800068 Z M102.440664,42.4174821 C103.616616,41.9049513 104.702112,41.9652491 105.908217,42.1762911 C105.998675,42.1762911 105.998675,42.3270355 105.878064,42.3270355 C104.973486,42.5079287 103.978449,42.9903106 103.164327,43.6535857 L103.164327,43.6535857 L103.19448,43.6837346 C103.375396,43.9249255 103.435701,44.2867119 103.375396,44.5882006 C103.31509,44.8595404 103.013564,44.9198382 102.802496,44.8293916 C102.62158,44.7389449 102.50097,44.6183495 102.380359,44.4374562 C102.018527,44.8595404 101.717001,45.3117734 101.566238,45.7941553 L101.566238,45.7941553 L101.536085,45.8544531 C100.933032,47.4523431 98.5509743,46.1257929 99.4857063,44.9198382 C100.32998,43.8646277 101.204406,42.9601617 102.440664,42.4174821 Z M75.9364984,36.2671129 C76.1777194,34.5787762 78.7708459,34.9707116 78.9216092,36.6891971 C79.0120671,37.7444074 79.2231355,38.4378314 79.0723724,40.0357215 C78.9517618,41.2115273 77.3235195,41.8145047 76.6601616,40.5181034 C75.966651,39.1614043 75.6952772,37.7745564 75.9364984,36.2671129 Z M57.6640018,35.3023491 C58.2972071,35.1214559 58.8098019,35.4530934 59.1414809,35.9354753 C59.2017862,35.9656242 59.2319388,36.0259219 59.2620915,36.0862197 C60.4078916,37.1112812 59.955602,39.221702 59.0811756,40.2769124 C58.5384283,40.9100386 57.3323229,40.7291455 56.9704913,40.0055726 C56.2769806,38.6488735 55.7040806,35.8751776 57.6640018,35.3023491 Z M73.5544402,29.6343618 C74.2177982,28.8504913 75.3937509,29.0313844 76.3586353,29.1821288 L76.3586353,29.1821288 L76.6601616,29.2424265 C77.6551985,29.3931709 78.6502355,29.7851062 79.5548144,30.2373392 C81.2433617,31.0815076 82.9319099,32.4683555 83.8063363,34.186841 C83.8967942,34.3677342 83.7158777,34.639074 83.5048095,34.5486274 C81.9971779,33.5235659 80.5800041,32.6190998 78.8009986,32.1065691 C77.9868774,31.8653781 77.2029089,31.7447826 76.3586353,31.6844849 C75.3334456,31.6241871 74.398714,31.895527 73.5544402,31.202103 C73.071998,30.8101677 73.1926086,30.056446 73.5544402,29.6343618 Z M61.7647601,28.5490025 C62.0059812,28.6394492 62.2170496,28.8203424 62.3678128,29.0615334 C62.5487286,29.3931709 62.5788812,29.6645107 62.4884233,30.0262971 C62.4281181,30.297637 62.2773549,30.5086791 62.0662865,30.6594234 C61.855218,30.8101677 61.5838443,30.9006143 61.2521654,30.9910609 C59.9857547,31.1418053 58.719344,31.443294 57.483086,31.8352292 C57.024766,31.9799438 56.5857436,32.1632489 56.1505808,32.3697084 L55.8246911,32.5286532 L55.3724016,32.7698441 C54.9502647,32.9507374 54.5281278,33.1617795 53.9552278,33.3125238 C53.9250752,33.3125238 53.8647699,33.3426727 53.8346173,33.3426727 C53.7089813,33.2924246 53.6671026,33.2421764 53.6391835,33.2093756 L53.6235488,33.1919283 L53.6235488,33.1617795 C53.5933961,33.1014817 53.5330909,33.041184 53.5933961,32.6793976 C54.7640279,30.2213781 57.9514169,29.1550313 60.481313,28.5982407 L60.7094179,28.5490025 L60.950639,28.4887049 C61.2521654,28.4284071 61.523539,28.4585559 61.7647601,28.5490025 Z" id="Combined-Shape" fill="#231E4A"></path>
                </g>
            </g>
        </g>
    </g>
</svg>