<?xml version="1.0" encoding="UTF-8"?>
<svg width="400px" height="220px" viewBox="0 0 400 220" version="1.1" xmlns="http://www.w3.org/2000/svg" xmlns:xlink="http://www.w3.org/1999/xlink">
    <title>02 — Ik wil mentaal sterk zijn</title>
    <defs>
        <rect id="path-1" x="0" y="0" width="400" height="220" rx="4"></rect>
    </defs>
    <g id="02-—-Ik-wil-mentaal-sterk-zijn" stroke="none" stroke-width="1" fill="none" fill-rule="evenodd">
        <g id="Group">
            <mask id="mask-2" fill="white">
                <use xlink:href="#path-1"></use>
            </mask>
            <use id="Mask" fill="#50C4EE" xlink:href="#path-1"></use>
            <g id="Group-2" mask="url(#mask-2)" stroke="#A8E8FF" stroke-width="2">
                <polyline id="Stroke-1" points="235 220 235 165 290.034 165 290.034 110 345.068 110 345.068 55 400 55.102"></polyline>
                <polyline id="Stroke-1" transform="translate(82.5, 82.5) scale(-1, -1) translate(-82.5, -82.5)" points="0 165 0 110 55.034 110 55.034 55 110.068 55 110.068 0 165 0.102"></polyline>
            </g>
            <g id="Shape" mask="url(#mask-2)">
                <g transform="translate(104, 10)" id="Group">
                    <path d="M102.046727,40.2287081 C102.531793,45.9999192 105.571537,67.7878621 105.571537,72.943045 C105.571537,75.5692702 103.404911,82.5076925 102.046727,86.3335519 C99.6860749,93.0774386 95.6115233,97.2275231 89.4026833,98.6865368 L93.8976249,105.560114 L91.8926868,120.409635 L63.5648546,119.274846 L53.3461388,106.727325 C53.3461388,106.727325 57.3560146,101.961213 59.2962772,98.7838046 C60.5897855,96.6439172 61.2042019,93.6934672 61.3658904,90.872706 C58.3261459,88.7976645 55.8038046,86.5280867 54.2839324,84.3881992 C53.8635421,83.7721714 51.0824992,85.5554111 48.1397678,82.4428473 C44.9706724,79.0709036 43.2244361,72.6512422 43.2244361,68.8253832 C43.2244361,63.9620031 40.0876785,60.5900595 40.4757309,54.3973555 C40.8961212,47.0050178 41.8985901,36.9216096 44.5179444,28.9780889 C46.8139217,21.9748215 50.3387319,16.6251033 55.8361424,16.3333005 C66.7662877,15.7172724 76.4676,12.6371317 84.1639749,19.5431315 C92.4747655,13.3180049 97.3254224,11.3726528 98.7159433,13.7394978 C100.106465,16.1387653 98.1662023,19.3161737 98.6836055,22.2666243 C99.9771139,24.5037792 100.753219,27.3245396 101.238285,30.080455 L101.205947,30.080455 C101.949714,34.5547647 101.917377,38.8021166 102.046727,40.2287081 Z M3.09334014,204.546111 C3.09334014,204.546111 3.57840577,209.928251 4.71022556,211.06304 C5.80970764,212.197829 19.1328435,215.472504 19.8766108,214.597096 C20.6203781,213.75411 21.6875224,177.019379 21.6875224,177.019379 L2.25255973,173.582591 L3.09334014,204.546111 Z M184.346195,110.066846 L176.779171,93.4989316 L165.78435,75.3098902 L154.692517,61.1412426 L145.734972,54.1055527 C145.734972,54.1055527 138.361974,51.6414402 137.84457,51.4144824 C137.294829,51.1875247 126.946763,51.4144824 126.946763,51.4144824 L120.446883,52.2574683 L113.397263,58.3204822 L113.817653,67.0097213 L122.031431,71.6137211 L132.702875,70.4465098 L143.503669,70.4465098 L148.321988,78.0333828 L152.267188,96.0278894 L159.090445,116.065016 L139.558469,109.548086 L143.827047,144.01324 L152.493553,144.758958 L180.692034,144.758958 L186.124769,142.521803 L190.716724,135.875184 L190.716724,125.921465 L184.346195,110.066846 Z" id="Shape" fill="#FFFFFF" fill-rule="nonzero"></path>
                    <path d="M190.823852,121.541656 C188.58787,116.159179 186.157455,110.841551 183.953879,105.459075 C178.023666,90.8680237 169.565822,77.7685021 160.36265,65.1553487 C156.506391,59.9025702 151.742778,55.6873776 146.006998,52.5097709 C143.771017,51.2776377 141.437818,50.2400518 138.877781,50.1103536 C134.697467,49.8833817 130.517154,49.6239852 126.33684,49.8185325 C122.12412,50.0130799 118.235456,51.0830904 115.027308,54.3903953 C107.865685,61.75077 112.953354,71.2511656 119.434461,73.0993655 C124.392507,74.4936215 129.220932,74.5908951 133.66049,71.4781375 C134.24379,71.0566183 134.762278,71.0566183 135.442794,71.1863165 C136.933449,71.4781375 138.488914,71.7699586 139.979569,71.5754112 C142.183145,71.3160148 144.354316,72.548148 145.229265,74.6557443 C146.201432,77.0551615 146.557893,80.0057962 147.206003,82.5349117 C147.983736,85.4855465 148.761469,88.4361812 149.441985,91.3868167 C151.191884,98.8120405 153.751921,105.945443 157.122097,112.787025 C157.251719,113.013997 157.316529,113.273394 157.575774,113.88946 C156.08512,113.143695 154.886115,112.560053 153.68711,111.976411 C149.344769,109.90124 144.970021,108.085464 139.947164,108.733955 C139.525891,108.798805 138.391698,106.302113 137.451937,106.204839 C137.160288,106.172415 136.836232,106.269688 136.544583,106.334538 C135.248361,106.626359 134.178978,106.204839 132.915163,105.913019 C131.651347,105.621197 130.387531,105.459075 129.091309,105.296952 C126.563678,105.005131 124.036047,104.907858 121.54082,104.648461 C117.068857,104.226942 112.564488,103.837847 108.092524,103.513601 C103.814994,103.221781 99.5050577,102.994808 95.2275272,103.870271 C94.4173888,104.032394 93.8016839,103.805423 93.412817,103.189356 C92.4730566,101.697826 91.5981076,100.173872 90.6907525,98.6823418 C90.6583471,98.6174929 90.6259411,98.5526439 90.5935357,98.487795 C91.0472133,98.2608226 91.5332962,98.0338509 91.9869737,97.8068792 C93.0563562,97.2556614 94.0933333,96.6071704 95.0654998,95.8938298 C96.7829925,94.6616969 98.3384586,93.2350164 99.6994904,91.6462132 C100.768874,90.4140796 101.676228,89.117097 102.551178,87.7552662 C103.458533,86.2961609 104.268671,84.8046307 104.949187,83.2158275 C105.370459,82.1782422 105.759326,81.1406561 106.083381,80.0706452 C106.472247,79.0979088 106.731492,78.1251716 106.893519,77.0875863 C107.055547,76.3418216 107.152764,75.5960562 107.217574,74.817867 C107.282386,74.0721023 107.314791,73.3587619 107.282386,72.6129971 C107.282386,72.0617796 107.185169,71.5429867 106.990736,70.9917692 C106.925925,70.1487307 106.828708,69.3381167 106.699086,68.5275028 C106.60187,67.7168888 106.407436,66.9386994 106.180597,66.1929346 C105.986165,65.1877733 105.791731,64.1826119 105.532487,63.1774506 C105.14362,61.4265245 104.884376,59.6431738 104.625132,57.8598231 C105.046403,57.9246721 105.467676,58.1192195 105.856542,58.4758897 C105.921353,58.5407387 106.050975,58.4758897 106.01857,58.3786159 C105.759326,57.4707284 105.176026,56.7249635 104.430699,56.2061705 L104.333482,55.5576794 C104.074238,53.5473568 103.879804,51.5370342 103.782588,49.5267116 C103.588155,47.5488135 103.393721,47.1921433 103.166883,45.3439435 L103.134477,45.1169716 C103.264099,45.1493962 103.393721,45.1169716 103.588155,45.0196979 C103.652966,44.9872734 103.652966,44.9224243 103.62056,44.8899997 C103.717777,44.8899997 103.782588,44.8575751 103.91221,44.792726 C104.009427,44.7278769 103.977021,44.6630278 103.91221,44.6306032 C103.944616,44.6306032 104.009427,44.6630278 104.074238,44.6630278 L104.139049,44.6630278 C104.560321,44.7603015 104.916781,44.7603015 105.305648,44.5333296 C105.467676,44.4360559 105.629703,44.3063576 105.759326,44.1766594 C106.439841,43.690291 106.861114,42.9445262 107.055547,42.1663368 C107.055547,42.1663368 107.055547,42.1663368 107.055547,42.1339123 C107.444413,41.2908737 107.444413,40.3181369 107.379603,39.4426739 C107.314791,38.8266073 107.217574,38.2429652 107.023141,37.6593232 C106.893519,37.302653 106.828708,37.1405302 106.699086,36.8811338 L106.569464,36.6217373 L106.504653,36.4920391 C106.213003,35.8759725 105.953759,35.2599059 105.564892,34.6762638 C105.208432,34.1250463 104.722349,33.6062534 104.268671,33.1523095 L103.977021,32.8604886 L103.814994,32.6983658 C103.879804,32.5362429 103.91221,32.3741201 103.847399,32.1795728 C103.55575,30.915015 103.264099,29.6180327 102.907639,28.3534749 C102.842827,27.8995311 102.778017,27.4780119 102.648394,27.024068 C102.518772,26.4728506 102.356744,25.9216331 102.162312,25.4028401 C102.129906,25.337991 102.0975,25.2731419 102.0975,25.2082928 L101.935473,24.8516226 C101.676228,24.1382824 101.287362,23.5546403 100.736468,23.0034228 C100.671657,22.9385737 100.639251,22.8737245 100.542035,22.9385737 C100.509629,22.9385737 100.509629,22.9709982 100.477223,23.0034228 C100.412413,22.9385737 100.347601,22.8737245 100.315196,22.8088754 C100.055951,22.4846298 99.7967072,22.1603843 99.5374631,21.8361387 C99.9263292,20.9606756 100.250385,20.0852125 100.542035,19.1449004 C100.57444,19.0152021 100.639251,18.8855039 100.671657,18.7233811 C100.768874,18.366711 100.898496,17.9776163 100.995712,17.6209461 C101.060523,17.1021531 101.125334,16.5833603 101.190145,16.0645673 C101.287362,15.5133498 101.319767,14.9945569 101.287362,14.4433394 C101.222551,13.7299991 101.125334,12.9842343 101.028118,12.270894 C101.028118,12.1411957 100.930901,12.0439221 100.86609,11.9466484 L100.801279,11.8493747 C100.736468,11.752101 100.57444,11.5251291 100.444818,11.5251291 C100.412413,11.5251291 100.347601,11.5251291 100.315196,11.5251291 C100.28279,11.4927046 100.217979,11.3954309 100.153168,11.3305818 L100.153168,11.2657327 C100.153168,11.2008836 100.023546,11.0387608 99.9587353,11.0387608 L99.6994904,11.0711853 C99.6022745,11.0711853 99.5050577,11.0711853 99.3754357,11.1036099 L99.3754357,11.1036099 C99.1161908,11.1360344 98.8893521,11.1360344 98.630108,11.168459 L98.630108,11.168459 C98.2736472,11.2008836 97.9495917,11.2657327 97.5931308,11.3305818 C96.8478039,11.4278555 96.1024762,11.5899783 95.3571492,11.7845256 C94.5146055,12.0114975 93.5100337,12.3681676 92.6998953,12.7248378 C91.9221623,13.0490834 91.1768353,13.4381781 90.4639137,13.8596973 C89.5565586,12.9518097 88.5843929,12.1736203 87.4826043,11.5899783 C87.3529823,11.46028 87.2233603,11.3305818 87.0937382,11.2008836 C86.6076553,10.7145152 86.1215725,10.2281468 85.5706782,9.80662758 C85.0521893,9.38510825 84.5337011,8.963589 83.9828068,8.60691892 C83.755968,8.44479611 83.4967239,8.31509785 83.2698852,8.15297505 L82.7838023,7.86115406 C82.2005027,7.47205934 81.6172031,7.14781375 80.9690921,6.88841729 C80.5478207,6.69386994 80.1265484,6.53174714 79.7052762,6.40204891 C77.534106,5.65628407 75.2981236,5.26718937 72.9973309,5.1699157 C72.1547871,5.13749114 71.3446487,5.1699157 70.5021048,5.20234025 C69.7567776,5.23476481 69.0114503,5.29961393 68.2985286,5.36446305 C68.266123,5.23476481 68.2337175,5.13749114 68.2013119,5.00779291 C67.9096621,4.16475439 67.4235791,3.41898954 66.807874,2.77049838 C66.5162242,2.44625279 66.2245744,2.18685632 65.9329246,1.92745986 C65.4468416,1.40866692 64.863542,0.987147667 64.2154313,0.695326641 C63.6645372,0.468354732 63.0488321,0.371081057 62.4655324,0.371081057 C61.9794495,0.371081057 61.4609609,0.435930174 61.0072835,0.598052966 C60.9748779,0.598052966 60.9748779,0.598052966 60.9424724,0.598052966 L60.8452558,0.630477524 C60.1971451,0.825024876 59.58144,1.14927046 59.0305459,1.60321428 C58.9009238,1.70048795 58.7713016,1.79776163 58.674085,1.8950353 C58.6416795,1.92745986 58.6092739,1.95988442 58.5444629,1.99230898 C58.3176241,1.76533707 58.0907854,1.53836516 57.8315411,1.34381781 C57.8315411,1.34381781 57.7991356,1.31139325 57.7991356,1.27896869 C57.2482415,0.662902082 56.5353198,0.241382824 55.7251815,0.0792600315 C55.5631538,0.0468354732 55.4011261,0.0468354732 55.2390984,0.0144109148 C55.1094763,0.0144109148 54.9474486,-0.0180136436 54.8178265,0.0144109148 C54.4937712,0.0468354732 54.1697158,0.11168459 53.878066,0.208958265 C53.5864162,0.273807382 53.2947664,0.371081057 53.0031166,0.533203849 C52.7762779,0.662902082 52.5494392,0.825024876 52.3226004,1.01957223 C52.2901949,1.05199678 52.2253838,1.08442134 52.1929783,1.14927046 C52.1281672,1.18169502 52.0957617,1.24654413 52.0309506,1.27896869 C51.8365174,1.44109148 51.6744897,1.63563884 51.5448676,1.79776163 C50.961568,1.27896869 50.3458629,0.85744943 49.6005356,0.565628407 C48.8876138,0.273807382 48.1422865,0.11168459 47.3969593,0.0468354732 C47.3645537,0.0468354732 47.3321483,0.0468354732 47.2997427,0.0468354732 L47.137715,0.0468354732 C46.3923878,0.0144109148 45.614655,0.144109148 44.9017332,0.403505616 C44.286028,0.598052966 43.6703229,0.85744943 43.1518344,1.24654413 C42.8925901,1.40866692 42.6657514,1.60321428 42.4389126,1.83018618 C42.3741016,1.8950353 42.3092905,1.92745986 42.2768849,1.95988442 C41.8232075,2.38140367 41.4019356,2.86777205 41.0778802,3.38656499 C40.9806636,3.54868778 40.883447,3.67838601 40.818636,3.8405088 C40.7214193,3.77565968 40.6242027,3.71081057 40.5269862,3.64596145 C40.0733087,3.38656499 39.5224146,3.28929131 38.9715205,3.32171587 C38.5178431,3.32171587 38.0641656,3.38656499 37.6428936,3.61353689 L37.6104881,3.61353689 L37.5132715,3.64596145 C37.059594,3.80808424 36.6707277,4.06748071 36.3790779,4.3917263 C35.8605893,4.81324555 35.5041284,5.3968876 35.2772897,6.04537877 C34.8884233,6.95326641 34.7588011,8.05570141 34.7263956,9.06086271 C34.69399,9.06086271 34.629179,9.06086271 34.5967735,9.06086271 C34.2079071,9.06086271 33.7218241,9.25541007 33.3329576,9.44995742 C33.1385245,9.51480651 32.9116857,9.61208022 32.749658,9.74177841 C32.4580082,9.93632576 32.1663584,10.1308731 31.9395197,10.3902696 C31.4858422,10.7793643 31.1293814,11.2333081 30.8701371,11.7845256 C30.805326,11.9142238 30.7405149,12.0763466 30.7081094,12.2060449 C30.6757039,12.270894 30.6757039,12.3033185 30.6432984,12.3681676 C30.3840541,13.0166588 30.319243,13.7299991 30.3516486,14.4109148 C30.3516486,14.5081885 30.3516486,14.6054622 30.3840541,14.6703113 C30.3840541,14.8648586 30.3840541,15.059406 30.4164596,15.2539533 C30.4812707,15.7403217 30.5784873,16.2266901 30.7729205,16.6806339 C30.9673537,17.1021531 31.1617869,17.4912479 31.3886256,17.8803426 C31.3238145,17.9127671 31.2590035,17.9776163 31.1941924,18.0424654 C31.1617869,18.0748899 31.1293814,18.1073145 31.0969758,18.1397391 C31.0969758,18.1397391 31.0969758,18.1397391 31.0645703,18.1397391 C30.7081094,18.3991355 30.4488651,18.7558057 30.2544319,19.1449004 C30.1896209,19.2745986 30.1572154,19.4042968 30.1248098,19.5339951 C29.8979711,20.0203634 29.83316,20.5715809 29.9303766,21.0579493 C29.9303766,21.155223 29.9303766,21.2524966 29.9303766,21.3821949 C29.9951877,22.4197807 30.7729205,23.2303947 31.6802754,23.6519139 C32.3607917,24.1382824 33.1061189,24.4625279 33.9162573,24.5922261 C34.2403126,24.6894999 34.5967735,24.7219244 34.9208288,24.754349 C35.115262,24.754349 35.3096952,24.754349 35.5365339,24.754349 C36.6707277,23.4573666 37.9345434,22.2252334 39.1011427,20.9606756 C39.7168478,20.3121845 40.6890138,21.2849212 40.0733087,21.9334124 C38.3234099,23.8464613 36.2494557,25.6622365 34.8560177,27.8995311 L34.7263956,28.2237767 C34.5967735,28.5480223 34.4671513,28.8398433 34.3699348,29.1640889 C32.9764968,32.6335167 32.1663584,36.2974917 32.4580082,40.0587405 C32.4580082,40.091165 32.4580082,40.1235896 32.4580082,40.1560142 L32.4580082,40.3505616 L32.4580082,40.4154107 L32.4580082,40.4478352 C32.4904138,40.8693544 32.5228193,41.2584491 32.5876304,41.6799684 C32.7172525,42.5230069 32.9116857,43.3660455 33.1385245,44.209084 C33.0413078,45.5384909 33.0737134,46.9003223 33.3329576,48.2297292 C33.3329576,48.2945784 33.3329576,48.3594274 33.3653632,48.4242765 C33.4625798,49.2673151 33.6894185,50.0779291 34.0458794,50.8561185 C34.5319624,52.1855253 35.2448841,53.4176585 36.2818612,54.2931216 C36.3142668,54.3255462 36.3790779,54.3903953 36.4438889,54.4228198 C37.0271885,55.2658584 37.7725157,55.9467741 38.7446818,56.0764723 L38.7122762,56.1413214 C38.4854375,56.6601144 38.3882209,57.2113319 38.3558154,57.7625493 C38.2910043,59.5459001 39.1335482,61.0050052 40.2677418,62.2371384 C40.2677418,62.3019875 40.2353364,62.3668367 40.2353364,62.4641103 C40.2029308,62.4965349 40.1705253,62.5289594 40.1705253,62.5938086 C40.0409031,63.5016962 39.9436865,64.3771593 40.0409031,65.2850469 C40.0409031,65.4147451 40.0733087,65.5120188 40.1057142,65.641717 C40.1705253,66.3226327 40.3001474,67.0035485 40.4945806,67.6196151 C40.7862304,68.4626536 41.1750968,69.2732676 41.6935853,70.0190324 C42.0176407,70.4729762 42.2120739,70.6999482 42.5037237,70.9917692 L42.8925901,71.3808639 C42.9249956,71.4132884 42.9249956,71.3484393 42.9574012,71.3160148 C43.0222122,71.3808639 43.0546178,71.4132884 43.1194288,71.4781375 C43.0222122,71.9320814 42.9898067,72.3536006 42.9898067,72.8075444 C42.9898067,73.423611 43.0222122,74.0396776 43.1518344,74.6233197 C43.3786731,76.2769719 43.9295672,77.8657759 44.8369221,79.2600315 C45.1609775,79.7139756 45.4850328,80.1354949 45.8090881,80.5894382 C46.1331435,81.0433823 46.4571988,81.4649015 46.8136597,81.8864208 C47.2997427,82.4376379 47.8182312,82.956431 48.4015309,83.4103751 C48.6931807,83.6373467 48.9848305,83.8643192 49.3088858,84.0264419 C49.3412913,84.058866 49.4061024,84.0912908 49.4385079,84.1237157 C50.2162407,84.642508 51.0911901,85.0640272 52.0309506,85.1937258 C52.3226004,85.2585748 52.6142502,85.3234237 52.9059,85.3558486 C53.4567941,85.3882734 54.0400937,85.3558486 54.5909877,85.1937258 C54.6557988,85.3234237 54.6882044,85.4531224 54.7530154,85.5503962 C54.7206099,85.5828203 54.7206099,85.6476692 54.7206099,85.6476692 C55.2390984,86.6204063 55.7899925,87.5607186 56.5029143,88.3713323 C56.8593752,88.7928515 57.2482415,89.1495218 57.6695134,89.5386162 C58.3500297,90.1546831 59.0629514,90.6086271 59.8730898,91.0949953 L59.8730898,91.0949953 L60.0999285,91.224694 C60.2619562,91.321967 60.3915783,91.4192408 60.553606,91.5165146 L60.6508226,91.5813635 C60.7480392,91.6462132 60.9424724,91.7110622 61.0072835,91.6137884 C61.0072835,91.6137884 61.0072835,91.6137884 61.0072835,91.6137884 L61.0072835,91.5813635 C61.0072835,91.5813635 61.0072835,91.5813635 61.039689,91.5813635 L61.1693111,91.6786373 C61.2989333,91.7434863 61.4933665,91.8407601 61.5581775,91.7434863 C61.6229886,91.6137884 61.4285554,91.5165146 61.2989333,91.4192408 L61.2017167,91.3543919 C61.1369056,91.321967 61.039689,91.2571181 60.9748779,91.224694 C61.0072835,91.224694 61.0072835,91.224694 61.039689,91.224694 L61.2989333,91.3868167 C61.3961498,91.4516656 61.7202052,91.6786373 61.8498273,91.5489394 C61.947044,91.4516656 61.8174218,91.321967 61.7202052,91.2895429 L61.6877996,91.2571181 C61.4609609,91.1274202 61.2665277,91.0301464 61.039689,90.9004478 C61.0720945,90.9004478 61.1045,90.9004478 61.1369056,90.9004478 C61.2341222,90.8680237 61.2341222,90.803174 61.2017167,90.7707499 C61.2989333,90.8355988 61.3961498,90.8680237 61.4933665,90.9328726 C61.5905831,90.9977216 61.6877996,91.0301464 61.7850163,90.9977216 C61.9794495,90.9004478 61.6877996,90.7059009 61.6229886,90.6734761 L61.5581775,90.6410512 C61.4933665,90.6086271 61.4609609,90.5762023 61.3961498,90.5437782 C61.4285554,90.5437782 61.4609609,90.5762023 61.4933665,90.5762023 C61.6553942,90.6734761 61.9794495,90.9004478 62.1090716,90.8355988 C62.2710993,90.738325 62.1090716,90.6086271 62.011855,90.5437782 L61.9794495,90.5437782 C61.7202052,90.3816547 61.4285554,90.2519568 61.2017167,90.0574093 C61.2017167,90.0574093 61.2341222,90.0249852 61.2341222,90.0249852 C61.2989333,89.8952865 61.1369056,89.8304376 61.0720945,89.7655886 L60.9100668,89.6683149 C60.4887949,89.4089183 60.0999285,89.1495218 59.7434676,88.8901253 C59.7110621,88.8577012 59.6462511,88.8252764 59.6138455,88.7604274 C59.0953569,88.2740585 58.674085,87.7552662 58.3176241,87.1391994 C57.8963522,86.5879815 57.5398913,86.0043395 57.215836,85.3558486 C56.9241862,84.9991783 56.6325364,84.6100839 56.3408866,84.2534136 C56.3732921,84.2209887 56.4056977,84.1561398 56.4381032,84.0912908 C56.5029143,84.0264419 56.3732921,83.9291681 56.24367,83.8318943 L56.3408866,83.7670454 L56.3732921,83.7346205 C56.5029143,83.6373467 56.6325364,83.5076489 56.6973475,83.3455261 L56.6973475,83.3455261 C56.729753,83.2482523 56.2112645,82.8591572 55.822398,82.7618841 C55.757587,82.7294593 55.6603704,82.6646104 55.5955593,82.6321855 C55.6279649,82.5997614 55.6279649,82.5673366 55.6603704,82.5349117 C55.7899925,82.4052138 55.3363151,82.1458173 55.1742874,82.1782422 C55.1094763,82.1458173 55.0770708,82.1458173 55.0122597,82.1782422 C54.9474486,82.2430911 54.8826376,82.30794 54.8178265,82.372789 C54.7206099,82.3403649 54.6233933,82.3403649 54.5585823,82.4052138 C54.3317435,82.6646104 54.0724993,82.8591572 53.8132549,83.0212807 L53.7484439,83.0537048 L53.6512273,83.0861296 C53.1651443,83.2482523 52.6790613,83.3131013 52.1605727,83.2806764 C51.7717064,83.2806764 51.3828399,83.1834034 51.0263791,83.0212807 C50.961568,82.9888558 50.8643514,82.9888558 50.7995403,82.956431 C50.6051071,82.8591572 50.4430794,82.7618841 50.2486463,82.6646104 C50.1838352,82.5997614 50.1514296,82.5673366 50.0866186,82.5024876 C49.7625633,82.1458173 49.4061024,81.8215719 49.0496415,81.4973264 L48.4663419,80.7191368 C47.8506367,79.8436735 47.2673372,78.9682109 46.7164431,78.0603227 C45.679466,76.0500002 45.193383,73.6181584 45.7442771,71.3808639 L45.7442771,71.3808639 L45.8090881,71.2511656 C45.8414937,71.153892 45.8738992,71.0890429 45.9063048,70.9917692 C46.3275767,70.051457 46.9756874,69.1759939 47.7858257,68.4950782 L47.8182312,68.4950782 L47.9154478,68.4302291 C48.2395032,68.2356817 48.5635585,68.0411344 48.9200194,67.9114361 L49.7625633,68.0411344 C50.3134573,68.0735589 50.8643514,68.0735589 51.4152455,67.9438607 C51.5448676,67.9438607 51.5772731,67.846587 51.512462,67.7493134 C51.5772731,67.7493134 51.6096787,67.7493134 51.6744897,67.7168888 C52.0309506,67.846587 52.3874115,67.9762853 52.7114668,68.1384081 L52.7114668,68.1384081 C53.327172,68.8193238 53.5864162,69.3705413 53.8132549,70.2784289 C53.8456605,70.4081271 55.5307482,71.445713 55.757587,69.9541833 C55.757587,69.759636 55.7251815,69.5650886 55.6927759,69.3705413 C55.5631538,69.0138711 55.4335317,68.6896255 55.2390984,68.36538 C55.0446653,68.0087098 54.785421,67.7168888 54.5261767,67.4250678 C54.2993379,67.2305204 54.0724993,67.0683976 53.8132549,66.9062748 C53.5864162,66.6144538 53.327172,66.3874819 52.9707111,66.16051 C52.7762779,66.0632363 52.6142502,65.9659627 52.4198171,65.8686889 C52.4198171,65.8686889 52.4522225,65.8362644 52.4522225,65.8362644 C52.6790613,65.4147451 52.9059,64.9608014 53.1327388,64.539282 C53.1651443,64.5068575 53.1327388,64.4744329 53.1003332,64.4095838 L53.4243886,63.7610927 C53.4891997,63.6313944 53.2299553,63.5341207 53.0679277,63.4692716 L52.9707111,63.4368471 L52.841089,63.4044225 C52.8086834,63.371998 52.7762779,63.3395734 52.7114668,63.3071488 C52.7114668,63.1126015 52.7438723,62.8856296 52.7438723,62.6910822 L52.7762779,62.5289594 C52.841089,62.0101665 52.9383055,61.4913736 53.0679277,60.9725807 C53.2299553,60.2592404 53.4243886,59.5783246 53.6836328,58.9298335 C53.7484439,58.7677106 53.8132549,58.5731633 53.9104716,58.4110406 C54.1373103,57.8598231 54.4289601,57.3086055 54.6882044,56.757388 C55.0446653,56.0116233 55.4659372,55.2982829 56.0168312,54.6822163 L56.7621585,53.677055 L56.9889973,53.385234 C57.5074858,52.7367428 58.0583799,52.0882517 58.6092739,51.4721851 C59.0305459,50.7912693 59.4518178,50.1103536 59.8730898,49.3970133 C60.2619562,48.6836731 60.7156337,48.0027573 61.1693111,47.3218416 L61.3637444,47.0300205 C62.2062882,45.8303119 63.1460487,44.6630278 64.0858092,43.5281683 C64.3450534,43.2363472 64.6042977,42.9445262 64.8311364,42.6527052 C64.7663253,42.9445262 64.7663253,43.2039227 64.8311364,43.4633191 C64.7663253,44.3063576 65.1875973,45.0521225 65.9653301,45.4087926 L65.9653301,45.4087926 L65.9653301,45.4087926 L65.9653301,45.4087926 C66.0301412,45.4736417 66.0949523,45.5060663 66.1921688,45.5384909 C66.2245744,45.5384909 66.2245744,45.5709154 66.2569799,45.5709154 C66.7754684,45.9275856 67.3587681,46.1221329 67.9420677,46.186982 C69.3355056,46.5436522 70.8585657,46.1545575 72.2520037,45.60334 L72.4140313,45.5384909 L72.7380867,45.60334 L73.1593586,45.6681891 L73.2889807,45.7006137 C73.2889807,45.7006137 73.2889807,45.7006137 73.3213863,45.7006137 C74.1639302,45.8303119 75.006474,45.9600101 75.8814232,46.0248592 C76.5619395,46.0572838 77.2424558,45.7654628 77.8257554,45.4736417 L77.9553774,45.4087926 C78.538677,45.1169716 79.1219766,44.7603015 79.7376823,44.500905 C79.8997097,44.5981787 80.0293317,44.6630278 80.1913591,44.7278769 C80.5154146,44.8575751 80.8394701,44.9548488 81.1959309,45.0196979 C82.0708807,45.2790944 82.978235,45.2142453 83.8531848,44.9548488 C84.0800235,45.0196979 84.3068623,45.084547 84.5661064,45.084547 C84.9873786,45.084547 85.3438394,44.9224243 85.6354889,44.6306032 C85.8947337,44.4684804 86.0891664,44.2739331 86.2835998,44.0145366 L86.3808166,43.8848384 C86.4456272,43.7875647 86.5104386,43.7227156 86.5752493,43.6254419 L86.7372774,43.4957437 L86.7696827,43.4633191 C86.9641162,43.39847 87.1261435,43.3660455 87.320577,43.4308946 C87.8390652,43.6254419 88.3575541,43.9821121 88.9084476,44.0469612 C88.9408537,44.0469612 88.9408537,44.0469612 88.973259,44.0469612 L89.0704757,44.0469612 C89.1676925,44.0793857 89.2649092,44.1442349 89.3945312,44.1442349 C89.9130194,44.2739331 90.366697,44.0469612 90.8527798,43.9496875 C91.3388627,43.8199893 91.7925403,43.8524138 92.2462178,43.9496875 C92.6998953,44.0793857 93.1211676,44.2415085 93.5748451,44.3712068 C93.7368725,44.4360559 93.9313059,44.4684804 94.0933333,44.500905 C94.3525774,44.5657541 94.6442276,44.6306032 94.9034717,44.6630278 C95.1951218,44.6954523 95.5191766,44.6954523 95.8432321,44.6954523 L96.0700708,44.6954523 C96.1348822,44.6954523 96.1672876,44.6306032 96.1348822,44.5981787 L96.1024762,44.500905 C96.1672876,44.500905 96.2645043,44.500905 96.3293149,44.500905 C96.361721,44.500905 96.3941263,44.4684804 96.3941263,44.4360559 C97.2042647,44.5657541 98.0144031,44.6630278 98.8569467,44.6954523 L99.0189749,44.6954523 C99.9263292,44.7278769 100.542035,44.792726 101.481795,44.7278769 C101.481795,44.7278769 101.481795,44.792726 101.481795,44.8575751 L101.481795,45.6681891 C101.481795,45.9600101 101.481795,45.6681891 101.481795,45.895161 L101.481795,46.186982 C101.416984,46.2194066 101.384579,46.2842557 101.384579,46.3491048 C101.416984,47.873059 101.481795,49.3645888 101.611417,50.888543 C101.708634,52.4124972 101.838256,53.9040269 102.032689,55.4279812 C101.967878,55.4279812 101.903067,55.4279812 101.805851,55.4279812 L101.676228,55.4279812 C100.444818,55.4279812 99.3430296,55.881925 98.2088365,56.3034442 L97.5283202,56.5628407 C96.6857758,56.8870863 95.6812047,57.2113319 94.838661,56.8870863 L94.8062549,56.8546618 C93.8016839,56.4979916 92.6350847,57.3086055 92.3758398,58.2813423 C92.0841904,59.3837773 92.7323007,60.4537877 93.8016839,60.7780333 C96.0052602,61.458949 98.2736472,60.3889386 100.250385,59.4486264 L100.801279,59.18923 C101.287362,58.962258 101.838256,58.670437 102.421556,58.4110406 C102.518772,59.1568053 102.648394,59.8701457 102.745611,60.6159105 C102.907639,61.6534964 103.069666,62.6586577 103.296505,63.663819 L103.652966,65.1553487 L103.944616,66.6793029 L104.009427,66.8738502 C104.139049,67.3277941 104.236265,67.7817379 104.301077,68.2681063 L104.333482,68.5275028 C104.365888,68.6896255 104.365888,68.8193238 104.398293,68.9814466 C104.430699,69.240843 104.463104,69.5002395 104.49551,69.759636 C104.49551,69.759636 104.49551,69.759636 104.49551,69.759636 C104.592727,70.4405517 104.657537,71.1214674 104.722349,71.8348077 L104.754754,72.1590533 C104.754754,72.2239024 104.754754,72.2563269 104.754754,72.2887515 L104.787159,73.8127057 C104.787159,74.0721023 104.787159,74.2990742 104.754754,74.5584706 C104.722349,74.817867 104.689943,75.0448389 104.657537,75.3042355 C104.657537,75.3366596 104.657537,75.3690845 104.657537,75.4339334 L104.657537,75.6609058 C104.625132,75.8230286 104.625132,75.9527265 104.592727,76.1148492 C104.527915,76.8930387 104.333482,77.6712283 104.074238,78.416993 C103.944616,79.0330598 103.782588,79.6491259 103.588155,80.2651927 C103.004855,81.9836946 102.259528,83.6373467 101.352173,85.1937258 C100.444818,86.7825291 99.407841,88.3064833 98.2736472,89.7331638 L97.9819977,90.0574093 C97.6903476,90.4465044 97.3662921,90.803174 97.0422373,91.1598443 C97.0098312,91.224694 96.9450206,91.2571181 96.9126145,91.321967 C96.5885598,91.6786373 96.232099,92.0353076 95.8756374,92.3595531 C95.0979051,93.0728937 94.3201721,93.7538095 93.4776284,94.3698755 C93.3480063,94.4671493 93.2183843,94.5644231 93.0887615,94.6616969 C92.6998953,94.9210934 92.3110292,95.1480651 91.889757,95.3750368 C90.7555631,95.9911036 89.5889639,96.6071704 88.3899594,97.0286897 C87.320577,97.4177841 86.2511945,97.7096054 85.149406,97.8717282 C84.5012957,98.0014261 83.8207794,98.0662758 83.1726684,98.0662758 C82.2977194,98.1635488 81.3903643,98.1635488 80.4830093,98.0662758 L79.1219766,97.9041523 L78.9275439,97.8393033 C77.534106,97.3529351 76.140668,96.898991 74.7472298,96.4126229 C74.3583633,96.1856512 73.969497,95.9586788 73.6130361,95.7317071 C73.5806305,95.699283 73.548225,95.699283 73.5158195,95.6668581 L73.3213863,95.5371595 C73.062142,95.3101878 72.8028977,95.0832162 72.5436535,94.8562445 C72.4464369,94.7589707 72.3168148,94.7265459 72.1871926,94.6616969 C71.9603539,94.4671493 71.7335151,94.2726018 71.539082,94.0780549 C71.4742709,94.013206 71.2474321,93.9483563 71.0854044,93.9159322 C71.0205934,93.8835074 70.8909713,93.8186584 70.8261602,93.8510825 C70.7613491,93.8835074 70.7289436,94.013206 70.7613491,94.0780549 C70.8261602,94.1429039 70.8909713,94.1753287 70.9233768,94.2401777 C70.8909713,94.2401777 70.8585657,94.2077528 70.8261602,94.2077528 L70.7613491,94.1753287 C70.6641325,94.1429039 70.5669159,94.1429039 70.4696993,94.1429039 C70.3400771,94.1753287 70.3076717,94.2726018 70.4048882,94.3698755 L70.4696993,94.4347252 L70.4372938,94.4347252 C70.3400771,94.4023004 70.2752661,94.4023004 70.210455,94.4347252 C70.1132384,94.4671493 70.0484273,94.5644231 70.145644,94.6616969 L70.1780495,94.694121 C70.1780495,94.694121 70.1780495,94.7265459 70.1780495,94.7265459 C70.1780495,94.7265459 70.1780495,94.7265459 70.210455,94.7589707 C70.1780495,94.7589707 70.145644,94.7589707 70.1132384,94.7589707 C70.0484273,94.7913948 69.9836163,94.9210934 70.0484273,94.9859424 C70.0808329,95.0183672 70.0808329,95.0183672 70.1132384,95.0507913 C70.1132384,95.0507913 70.1132384,95.0832162 70.145644,95.0832162 C70.1780495,95.1156403 70.2428606,95.1480651 70.2752661,95.1804899 L70.2428606,95.1804899 C70.145644,95.212914 70.0808329,95.3101878 70.1780495,95.4074616 C70.3724827,95.5695844 70.5345104,95.7641319 70.7289436,95.9262547 C71.3122432,96.4774718 71.9603539,96.9638407 72.64087,97.4177841 C73.0297365,97.6771806 73.4510084,97.9365771 73.9046859,98.1311247 C74.7472298,98.5526439 75.5897738,98.9093143 76.4971288,99.2335597 C77.5665113,99.6226541 78.7331105,99.8820506 79.8997097,100.044173 C81.7144198,100.368419 83.5615346,100.400844 85.3762448,100.141447 C86.2835998,100.011749 87.1909549,99.8172017 88.09831,99.5578052 C88.5519868,99.4281065 89.0056643,99.2659838 89.4593419,99.1038611 C89.6537753,101.211457 90.4639137,104.291791 91.7277296,106.13999 C88.2927427,114.084007 78.8303272,118.720719 70.1780495,116.710397 C65.1875973,115.543113 61.1693111,112.722176 57.7991356,108.960927 C57.0538083,108.150313 56.4056977,107.242425 55.6927759,106.334538 C56.2112645,105.945443 56.5677254,105.653622 56.9241862,105.361801 C60.0351174,102.832685 61.2989333,99.4605314 61.4285554,95.5695844 C61.4609609,94.8238196 61.4285554,94.0456301 60.3267672,93.7213846 C59.5490344,95.6020092 58.9981404,97.5474827 58.0259743,99.2335597 C57.0214028,100.984486 55.5955593,102.50844 54.2345269,104.226942 C52.9707111,102.346317 51.2856233,102.15177 49.4385079,102.50844 C46.3923878,103.092082 43.3138621,103.6433 40.2677418,104.35664 C35.9254003,105.361801 31.9395197,107.27485 28.3100999,109.90124 C21.2456936,114.959471 16.0608082,121.57408 12.3989829,129.420824 C10.2602176,133.960262 8.2834801,138.564549 6.33914805,143.168836 C2.35326741,152.507109 0.57096305,162.299326 0.0200689771,172.383363 C-0.0447420904,173.453374 -0.0123365566,174.361261 1.05704606,174.490959 C1.05704606,175.950065 1.05704606,177.247047 1.05704606,178.544029 C1.08945159,182.499826 1.05704606,186.455622 1.15426266,190.378993 C1.25147926,193.848421 1.31629033,197.350273 1.7699678,200.787276 C2.19123974,203.932459 3.13100021,206.980367 3.94113856,210.0607 C4.10316623,210.676767 4.29759943,211.422531 5.07533224,211.779202 C5.17254884,211.55223 5.30217097,211.390107 5.26976544,211.260409 C5.23735991,210.741615 5.17254884,210.190398 5.07533224,209.671605 C4.2651939,205.197016 3.71429982,200.690002 3.71429982,196.150564 C3.71429982,189.795351 3.71429982,183.407713 3.74670535,177.0525 C3.74670535,176.63098 3.84392196,176.177036 3.90873303,175.625819 C9.32045716,177.506444 14.7645868,178.414331 20.2735276,179.030398 C20.2735276,179.451917 20.3059331,179.743738 20.2735276,180.035559 C19.5606058,185.645007 18.7180619,191.222031 18.1023568,196.863905 C17.5190572,202.213957 17.4542461,207.564009 18.4588177,212.881637 C18.5236287,213.173458 18.5560343,213.465279 18.5560343,213.7571 C18.5236287,215.054082 18.7180619,215.443177 19.8198501,215.864696 C20.3707441,216.091668 20.9540438,216.221366 21.5049378,216.31864 C29.6063212,217.939868 37.7725157,218.977454 46.0359269,219.204425 C53.1651443,219.398973 60.2943617,219.398973 67.4235791,219.496247 C71.3122432,219.561096 75.2009069,219.431398 79.0895713,219.723218 C91.889757,220.631106 104.49551,219.23685 116.97164,216.545612 C118.753944,216.156517 120.503844,215.572875 122.286148,215.345903 C123.420342,215.18378 124.003641,214.664987 124.262885,213.69225 C124.457319,213.076184 124.554535,212.427692 124.586941,211.779202 C124.748968,208.958265 125.040618,206.137329 125.008212,203.316392 C124.943402,195.080554 124.748968,186.812291 124.554535,178.576454 C124.489724,176.27431 124.424913,173.972166 124.133263,171.702447 C123.225908,164.89329 124.100857,158.051709 123.744396,151.242551 C123.744396,151.210127 123.809208,151.145278 123.93883,151.015579 C130.581964,151.793769 137.28991,152.409836 144.192288,150.756183 C144.483938,148.875558 144.807994,146.962509 145.099643,144.984611 C145.48851,145.017036 145.747754,145.049461 146.039404,145.081885 C151.710372,146.411292 157.446152,146.767962 163.246742,146.443716 C166.649324,146.249169 170.08431,146.119471 173.486891,145.957348 C176.079334,145.82765 178.671776,145.730377 181.264219,145.600678 C184.861234,145.373706 187.972164,144.303695 190.272957,141.190938 C191.698801,139.277889 192.735778,137.332416 192.897806,134.965423 C193.189455,130.263862 192.606156,125.789273 190.823852,121.541656 Z M50.6375127,21.1876475 C51.7068953,20.9931002 52.7762779,20.8634019 53.8456605,20.7337037 C55.4983428,20.6040055 57.1186194,20.5715809 58.7713016,20.7337037 C59.8406842,20.8309774 60.9100668,20.9931002 61.947044,21.2849212 C62.1414771,21.3173458 62.3359103,21.3497703 62.5627491,21.4146194 C62.9516155,21.5118931 63.3728875,21.6415913 63.7617538,21.7712896 C64.5394866,21.9982615 65.3172194,22.2900825 66.0949523,22.6143281 C67.4559847,23.1655456 68.7198005,23.8464613 69.9188052,24.6570752 C69.9836163,24.6894999 70.0484273,24.6246507 70.0808329,24.5598016 L70.2428606,24.6570752 C70.210455,24.7219244 70.210455,24.754349 70.1780495,24.819198 C70.0484273,25.1110191 69.9512108,25.4028401 69.8539941,25.6946612 C69.6919665,25.629812 69.5299389,25.5649629 69.3679112,25.5001138 L69.2058835,25.4352646 C68.5253673,25.1758682 67.8448511,25.0137454 67.1319293,24.8840472 C66.8402795,24.819198 66.5810353,24.7867735 66.2893855,24.754349 C66.1273578,24.7219244 65.9977356,24.7219244 65.835708,24.6894999 C65.0579752,24.6246507 64.2802424,24.6570752 63.5349151,24.754349 C63.5025096,24.754349 63.5025096,24.7867735 63.470104,24.819198 C63.1460487,24.8840472 62.8543989,24.9164718 62.5303435,25.0137454 C62.497938,25.0137454 62.4655324,25.0461699 62.433127,25.0785946 C61.947044,25.1758682 61.4609609,25.337991 60.9748779,25.5001138 C60.9424724,25.5001138 60.8128502,25.629812 60.8128502,25.6946612 L60.6832281,25.7270857 L60.6832281,25.7270857 C60.618417,25.7595103 60.4887949,25.9540576 60.5212004,25.9540576 L60.8128502,25.9216331 C60.8128502,25.9540576 60.8128502,25.9540576 60.8128502,25.9864822 C60.7480392,26.0189067 60.6832281,26.0513312 60.618417,26.0513312 L60.5860115,26.0513312 C60.4239839,26.1161804 60.553606,26.3107278 60.6508226,26.4080014 L60.5860115,26.440426 C60.4563894,26.5052751 60.3915783,26.7646716 60.5860115,26.732247 C60.7480392,26.6998225 60.9100668,26.6998225 61.0720945,26.6673979 C61.1045,26.6673979 61.1369056,26.6673979 61.1369056,26.6673979 L61.2017167,26.6673979 L61.1045,26.6998225 C61.039689,26.732247 60.9424724,26.7646716 60.8776613,26.7970961 C60.6832281,26.8619453 60.8452558,27.1537663 60.9748779,27.1537663 L61.2665277,27.1213417 C61.3313388,27.2186154 61.4609609,27.3158891 61.525772,27.3158891 C62.2062882,27.2186154 62.8868044,27.1537663 63.5997262,27.0889172 C64.2154313,27.024068 64.8311364,26.9916435 65.414436,26.9592189 C66.4190076,27.0889172 67.4559847,27.2186154 68.4605562,27.3483136 C68.8170171,27.4455873 69.173478,27.5752855 69.5299389,27.7374083 C69.5299389,27.8671066 69.5299389,27.9968048 69.5299389,28.126503 C69.5299389,28.2562013 69.5299389,28.418324 69.5623443,28.5804468 C69.5623443,28.937117 69.5947499,29.2937871 69.659561,29.6180327 L69.8215887,30.5259203 C69.9512108,31.0771378 70.145644,31.5959307 70.4048882,32.0822992 L70.3724827,32.0822992 C70.3076717,32.0174501 70.210455,31.9201763 70.1132384,31.8553273 C70.2428606,31.7580535 70.0484273,31.4662325 69.8863997,31.4986571 L69.7891831,31.4986571 C69.7891831,31.4662325 69.7891831,31.4662325 69.724372,31.4662325 C67.8772566,31.6607799 66.0625467,31.8553273 64.2154313,32.0498746 C62.9192099,32.2768465 61.5905831,32.4389693 60.2943617,32.309271 L60.0999285,32.309271 C60.0999285,32.309271 60.0999285,32.309271 60.0999285,32.309271 L60.067523,32.309271 C59.9054953,32.2768465 59.7434676,32.2768465 59.5490344,32.244422 C59.1925736,32.1795728 58.8361127,32.0822992 58.5120574,31.9201763 L58.3176241,32.0174501 C58.3176241,31.9850254 58.3176241,31.9850254 58.3176241,31.9850254 C58.3176241,31.9526009 58.2852186,31.9201763 58.2528131,31.9201763 C58.2204076,31.9201763 58.188002,31.9526009 58.188002,31.9526009 L58.0259743,32.0174501 L57.8315411,31.9850254 L57.7343245,31.9526009 C57.6695134,31.9201763 57.6047024,31.9201763 57.5398913,31.8877518 L56.24367,31.4013834 L56.1140479,31.3365343 C55.757587,31.1419869 55.4011261,30.915015 55.0446653,30.6880431 C54.6233933,30.4610712 54.2345269,30.2016747 53.878066,29.8774292 C53.7808495,29.7477309 53.6512273,29.6504573 53.5540107,29.520759 C53.1651443,29.1640889 52.8086834,28.7749942 52.4522225,28.3534749 C51.9661395,27.7698329 51.512462,27.1537663 51.0911901,26.4728506 C50.2810518,25.2082928 49.6005356,23.8788859 48.9524249,22.549479 L48.5635585,21.738865 C49.2116692,21.5118931 49.9245909,21.3173458 50.6375127,21.1876475 Z M70.4372938,34.3195937 C70.3400771,34.3520182 70.2428606,34.4168674 70.1780495,34.4492919 C70.145644,34.4168674 70.1132384,34.3844427 70.0808329,34.4168674 C70.0484273,34.4492919 70.0160218,34.4492919 69.9836163,34.4817165 L69.7567776,34.6114147 C69.6919665,34.5465656 69.5947499,34.514141 69.5299389,34.5465656 C68.2013119,35.3896041 66.9374961,36.2650672 65.7708969,37.302653 C65.5764637,37.4647758 65.3820305,37.6593232 65.1551918,37.8538705 C63.9237815,38.9887301 62.7895878,40.2532878 61.7202052,41.5178456 C60.6508226,42.814828 59.6138455,44.1766594 58.674085,45.5384909 C57.5398913,47.1597188 56.5029143,48.8457958 55.4011261,50.4994483 C53.9104716,52.7691674 52.4198171,55.0388865 51.3828399,57.5355774 C51.0263791,58.4110406 50.7023238,59.3189282 50.475485,60.2592404 C50.3782684,60.583486 50.3134573,60.9077315 50.2486463,61.2644017 C50.1838352,61.6859209 50.1190241,62.0750156 50.0542131,62.4965349 C49.989402,63.2747243 49.989402,64.0529137 50.0542131,64.8635276 C50.0542131,64.8959522 50.0866186,64.9283767 50.1190241,64.9608014 C50.1190241,65.0256504 50.1190241,65.0904995 50.1190241,65.1553487 C49.989402,65.1553487 49.8921854,65.1229241 49.7625633,65.1229241 L49.6329411,65.1229241 C49.3736968,65.1229241 49.082047,65.1229241 48.8228028,65.1553487 C48.4015309,65.2201978 48.0126644,65.3174714 47.6237981,65.4795942 C47.5913925,65.4795942 47.5265814,65.5120188 47.4941759,65.5444434 C47.4293648,65.5120188 47.3321483,65.5120188 47.2673372,65.4795942 C46.8460652,65.3498961 46.4571988,65.1877733 46.0683324,64.9932259 C46.1331435,64.6041312 46.1331435,62.9504787 46.165549,62.3344121 L46.165549,62.2047139 C46.3599822,60.4862123 46.7812541,58.8001353 47.3645537,57.1789073 C47.4293648,57.0167846 47.4617704,56.8870863 47.5265814,56.7249635 C47.9154478,55.7522267 48.3691253,54.8119145 48.8876138,53.8716024 C49.2440747,53.2231112 49.6329411,52.6070446 50.0866186,51.990978 C50.6699182,51.180364 51.2856233,50.4345991 51.9661395,49.7212589 C51.9985451,49.6888344 51.9013285,49.5915606 51.7717064,49.494287 C51.933734,49.2997397 52.0957617,49.1376169 52.2577894,48.975494 C52.3226004,48.8782204 51.8689229,48.5863993 51.5772731,48.5215503 C51.4800566,48.4567011 51.3828399,48.391852 51.2532178,48.3270029 C51.2532178,48.3270029 51.2856233,48.2945784 51.2856233,48.2621537 C51.3828399,48.1648801 51.3504344,48.100031 51.2208122,48.0027573 C51.1560012,47.9703327 50.961568,47.8406345 50.8643514,47.873059 C50.8319459,47.8082099 50.7671348,47.8082099 50.7023238,47.873059 C50.6375127,47.9379082 50.5727016,48.0027573 50.5078905,48.0676064 C50.4430794,48.0351818 50.3782684,48.0351818 50.3458629,48.0676064 L50.1190241,48.2945784 C50.0866186,48.2945784 50.0866186,48.2945784 50.0542131,48.3270029 C49.017236,49.4618624 48.0774755,50.596722 47.2349316,51.8937043 C46.2951711,53.385234 45.5498439,54.9416128 44.9665443,56.5952652 C44.772111,57.1464827 44.5776778,57.6977003 44.4480557,58.2813423 C44.8369221,58.3461914 45.1285719,58.670437 44.9665443,59.0919563 C44.7073,59.7080229 44.3508391,60.1943913 43.8971617,60.6807596 C43.799945,61.1995526 43.5407008,61.1995526 43.4758897,61.1022789 C43.2166454,61.2644017 42.7953735,61.2968262 42.5685347,61.0374298 C41.5963688,59.8052966 41.2399079,58.4758897 41.4991521,56.9195108 C41.7583964,55.3307075 42.5361293,53.9040269 42.7953735,52.3152236 C42.8277791,52.1206762 42.9249956,51.9585534 43.0546178,51.8937043 C44.5128668,48.0351818 46.8460652,44.5333296 49.6977522,41.5502702 C51.3180289,39.8317686 53.1327388,38.3078143 54.9798542,36.8487092 L57.7343245,34.7411129 C57.9935688,34.5789901 58.2204076,34.4168674 58.4472463,34.2547446 C58.8037072,34.3520182 59.1277625,34.4168674 59.4842234,34.4492919 C60.4887949,34.5789901 61.4933665,34.5789901 62.497938,34.514141 C63.1784542,34.4492919 63.8265649,34.3844427 64.5070811,34.3195937 C65.5440581,34.22232 66.6134408,34.0926218 67.6504179,33.9953481 C68.6225838,34.0926218 69.5947499,34.1574709 70.5669159,34.22232 C70.5669159,34.22232 70.5021048,34.2547446 70.4372938,34.3195937 Z M84.274457,27.8995311 L84.0476182,27.9319557 C83.6587513,27.9968048 83.2374798,28.0940785 82.8486129,28.1913521 L82.6541803,28.2562013 C80.9690921,28.6777205 79.3164101,29.3262117 77.7933501,30.1368256 C77.0804284,30.5259203 76.3675068,30.9474396 75.6869905,31.4013834 C74.8444463,31.6932044 74.0019025,32.0498746 73.2241697,32.5038184 L73.1917641,32.5038184 C72.3168148,30.9474396 71.7983262,29.1965134 71.9603539,27.3807382 C71.9603539,27.2834645 71.9927594,27.2186154 71.9927594,27.1213417 C72.0575704,26.732247 72.1223815,26.3755769 72.2195981,25.9864822 C72.5112479,25.3055665 72.9325199,24.6570752 73.3861974,24.1382824 C73.6130361,23.9113105 73.8398748,23.6843386 74.0667135,23.4897912 C74.2611468,23.3600929 74.45558,23.2303947 74.6500131,23.1331211 C75.5573684,23.5870648 76.3351007,24.3328297 76.7239676,25.337991 C77.1452391,26.3755769 78.8303272,25.9216331 78.409055,24.8840472 C78.0201888,23.9113105 77.4044832,23.0682719 76.6591562,22.4197807 C76.9832117,22.3549316 77.3072672,22.2900825 77.663728,22.2252334 C78.4738664,22.0955352 79.2515987,22.1279597 80.0293317,22.2900825 L80.580226,22.4197807 L80.709848,22.4522053 C81.0339035,22.5819035 81.3255529,22.7116018 81.6172031,22.8737245 L81.6172031,22.8737245 C82.2653134,23.424942 82.8486129,24.1058578 83.2374798,24.754349 C83.755968,25.629812 84.1448342,26.5701242 84.274457,27.6077101 L84.274457,27.8995311 L84.274457,27.8995311 Z M86.0243557,25.5325384 L86.0243557,25.5325384 C85.9919497,25.4676893 85.9919497,25.4352646 85.9595443,25.3704156 C85.9919497,25.3704156 86.0567611,25.337991 86.0891664,25.337991 C86.1215725,25.3704156 86.1539778,25.4028401 86.1863831,25.4028401 L86.0243557,25.5325384 Z M93.2507896,26.2134541 C93.0887615,26.3431523 92.9591394,26.4728506 92.7971121,26.5701242 C92.2786239,26.9592189 91.7601349,27.3158891 91.2092407,27.6401346 C89.8482088,27.4780119 88.4871762,27.4455873 87.1585489,27.5104364 C86.9641162,27.5104364 86.7696827,27.542861 86.5752493,27.542861 C86.5752493,27.5104364 86.5752493,27.4455873 86.5428439,27.4131627 C86.4780333,26.8943698 86.3160052,26.3431523 86.1539778,25.8567839 L86.1863831,25.8567839 C86.2187884,25.8567839 86.2511945,25.8567839 86.2511945,25.8243594 L86.4132219,25.7919348 C86.4780333,25.9216331 86.672466,26.0513312 86.7372774,26.0189067 C87.7418484,25.7919348 88.6816096,25.4028401 89.5565586,24.9164718 C90.7555631,24.3652543 91.9545684,23.8464613 93.2183843,23.424942 C93.3156003,23.3925175 93.3156003,23.3276684 93.2831949,23.2628192 L93.5100337,23.1979701 L93.542439,23.1979701 C93.7044672,23.1331211 93.5100337,22.9385737 93.4452231,22.8737245 L93.3804117,22.8088754 C93.3480063,22.7764509 93.2831949,22.7116018 93.2507896,22.6791772 C93.3156003,22.6467526 93.412817,22.6143281 93.4776284,22.5819035 C93.542439,22.549479 93.5748451,22.5170544 93.5748451,22.4846298 L93.8016839,22.4197807 C93.9961166,22.3549316 93.8340892,22.1928088 93.7692778,22.0955352 L93.6720618,21.9982615 C93.542439,21.8685632 93.3156003,21.6740159 93.2183843,21.7064405 L93.1859782,21.7064405 L93.1535729,21.6740159 C93.0887615,21.6091668 93.0563562,21.5767422 92.9915455,21.5118931 C93.0887615,21.3821949 92.8295174,21.1227984 92.6998953,21.1876475 L92.6026786,21.2200721 C92.6026786,21.1876475 92.6026786,21.155223 92.5702733,21.1876475 C92.4082459,21.2524966 92.2462178,21.2849212 92.1165958,21.3497703 C91.0796186,21.6740159 90.0426415,22.030686 89.0380704,22.4846298 C88.6167982,22.6467526 88.2279321,22.8737245 87.8390652,23.1006965 C87.2557656,23.424942 86.7048721,23.7816122 86.2187884,24.235556 L86.2187884,24.235556 C86.1863831,24.2679805 86.0891664,24.3976788 86.0891664,24.4301033 L86.0891664,24.4301033 L86.4456272,24.3004052 L86.3808166,24.3328297 L86.3160052,24.3652543 C86.1539778,24.4949525 85.9919497,24.6246507 85.8299223,24.754349 C85.797517,24.7867735 85.797517,24.7867735 85.7651109,24.819198 C85.4410562,24.2031314 85.0197839,23.6194894 84.5337011,23.1006965 L84.5012957,23.0682719 C84.4688897,23.0358473 84.4688897,23.0358473 84.4364843,23.0034228 L84.5012957,23.0358473 C84.5337011,23.0358473 84.5985117,23.0034228 84.5985117,22.9709982 C84.7281345,23.0682719 84.8577566,23.1331211 85.0521893,23.1979701 C85.149406,23.2303947 85.2142174,23.1006965 85.2142174,23.0358473 C85.2142174,23.0034228 85.1818113,22.9385737 85.1170007,22.9061492 C85.1818113,22.9385737 85.279028,22.9709982 85.3438394,23.0034228 C85.4410562,23.0358473 85.5382721,22.9385737 85.5058668,22.8413 C85.4734615,22.7116018 85.2466227,22.549479 85.149406,22.4846298 C85.149406,22.4846298 85.1170007,22.4846298 85.1170007,22.4846298 C85.1170007,22.4197807 85.1170007,22.3873562 85.149406,22.3225071 C85.1818113,22.3549316 85.2466227,22.3549316 85.279028,22.3873562 C85.3762448,22.4197807 85.4410562,22.2900825 85.4410562,22.2252334 C85.4410562,22.1928088 85.4086501,22.1603843 85.4086501,22.1279597 C85.4734615,22.1603843 85.5058668,22.1603843 85.5706782,22.1928088 C85.7327056,22.2252334 85.7651109,21.9334124 85.6030835,21.8685632 L85.4086501,21.8037141 C85.4734615,21.7064405 85.5058668,21.6091668 85.6030835,21.5443177 C85.927139,21.1227984 86.3484105,20.7661283 86.7372774,20.3770336 C87.0289268,20.052788 87.3529823,19.7285424 87.6446325,19.4042968 C87.9362819,19.1124758 88.2279321,18.8206548 88.5519868,18.5612583 C88.6492035,18.4964092 88.7140149,18.4315601 88.8112317,18.366711 C90.2046696,17.2318514 91.7277296,16.2915392 93.3480063,15.578199 C94.19055,15.1891043 95.0330937,14.8324341 95.9080435,14.540613 C96.5237484,14.2812166 97.2042647,14.1190938 97.8523749,14.0218201 C98.2088365,13.9245464 98.5652973,13.8272728 98.9217581,13.7624236 C98.9541635,14.0866692 98.9865688,14.4109148 99.0189749,14.7351604 L99.0189749,14.767585 L99.0189749,14.8324341 C99.0189749,14.9945569 98.9865688,15.1242551 98.9865688,15.2863779 C98.9217581,16.2266901 98.8245414,17.1021531 98.5977026,18.0100408 C98.3384586,19.0152021 97.9819977,19.9555143 97.5283202,20.8958265 C97.0422373,21.8685632 96.458937,22.8413 95.8108267,23.7167631 C94.9682831,24.5598016 94.1581447,25.4352646 93.2507896,26.2134541 Z M97.7875643,27.9319557 L97.6579422,27.834682 C97.6255369,27.8022574 97.5931308,27.834682 97.5607255,27.8671066 C97.107048,27.7698329 96.6533704,27.6725592 96.1672876,27.6401346 C95.9080435,27.6077101 95.6163933,27.6077101 95.3247439,27.6077101 C96.3941263,26.6349733 97.3338867,25.5001138 98.1116198,24.2679805 C98.2736472,24.0085841 98.4356753,23.7816122 98.5652973,23.5222158 C98.8569467,23.8788859 99.1161908,24.3004052 99.3754357,24.6894999 C99.3754357,24.7219244 99.3430296,24.754349 99.3754357,24.7867735 C99.8615186,25.9540576 100.28279,27.1213417 100.444818,28.3858995 C100.444818,28.6128714 100.444818,28.8074187 100.444818,29.0343906 C100.444818,29.0668152 100.444818,29.0668152 100.444818,29.0992398 L100.444818,29.1965134 C99.6994904,28.6128714 98.75973,28.2237767 97.7875643,27.9319557 Z M188.652681,136.943321 C188.134192,140.153352 186.222266,142.001552 183.014118,142.358222 C180.259648,142.682468 177.505177,142.877015 174.750707,142.941865 C165.385508,143.136411 156.020308,143.26611 146.655109,143.395808 C146.233837,143.395808 145.844971,143.395808 145.261671,143.395808 C145.132049,132.468731 143.900639,121.865901 141.178574,111.295495 C143.058095,111.133372 144.840399,111.619741 146.525487,112.39793 C149.992879,114.051582 153.363054,115.802509 156.765636,117.553435 C157.381341,117.87768 157.96464,118.2992 158.612751,118.558596 C159.358078,118.850418 160.168217,119.109814 160.978355,119.207087 C161.982927,119.336786 162.371793,118.720719 162.080143,117.780407 C160.038595,111.392769 157.997046,105.005131 155.955497,98.6174929 C153.589893,91.321967 151.127073,84.0912908 148.858686,76.795765 C148.210575,74.7205934 146.946759,73.1966391 145.618132,71.6078358 C145.391293,71.3484393 145.19686,71.0890429 144.872805,70.7323727 C145.715349,70.5054008 146.395865,70.4081271 147.043976,70.1487307 C147.627275,69.8893342 148.24298,69.5650886 148.599441,69.1111448 C149.312363,68.2032572 148.858686,67.4574923 147.724492,67.3926432 C145.877376,67.262945 144.095072,67.4574923 142.345173,67.9762853 C140.271219,68.5923519 138.132454,68.949022 135.83166,68.949022 C136.026094,65.1553487 133.628084,63.145026 130.776398,61.7183455 C128.79966,60.7456087 126.142406,61.5237981 124.424913,63.2098752 C124.87859,63.7935172 125.526701,63.5341207 126.045189,63.4692716 C128.21636,63.145026 129.642204,64.4744329 130.938425,65.8038399 C132.234647,67.1332468 131.780969,68.657201 129.998665,69.2084185 C126.239623,70.4081271 122.480581,70.1163061 119.013189,68.36538 C114.832875,66.2577836 114.022737,60.8428824 116.906829,57.1140582 C118.980783,54.487669 121.573226,53.0609884 124.87859,52.8664411 C127.2766,52.7367428 129.707015,52.6394692 132.105024,52.6070446 C133.757707,52.6070446 135.410389,52.7691674 137.063071,52.8015919 C139.720325,52.8664411 142.15074,53.6446305 144.483938,54.8443391 C150.05769,57.7301248 154.756492,61.7183455 158.774779,66.4847555 C159.682134,67.554766 160.557083,68.6896255 161.432033,69.7920605 C162.501415,71.1214674 163.311553,72.6129971 163.99207,74.2018004 C164.769803,75.9851513 165.644752,77.7360772 166.778946,79.2924564 C176.208956,92.6837985 182.657657,107.469397 187.615704,122.968336 C189.073953,127.540199 189.430414,132.209336 188.652681,136.943321 Z M98.5977026,11.168459 C98.9217581,11.0387608 99.1485969,11.0387608 99.3106243,11.1036099 C99.0513802,11.1036099 98.8245414,11.1360344 98.5977026,11.168459 Z M82.0060693,64.9608014 L82.0060693,65.0256504 C82.0384746,66.1280855 81.7468252,68.5599273 80.2885758,68.5599273 C78.8303272,68.5599273 78.0525942,66.2577836 78.0525942,65.1229241 L78.0525942,65.0904995 C78.0525942,63.9880646 78.7007052,61.4265245 80.2885758,61.4265245 C81.2931476,61.458949 81.8764472,63.1774506 82.0060693,64.9608014 Z M94.4497941,72.4832989 C95.8756374,70.5054008 93.8664945,68.6247764 92.537868,67.8141625 C92.1814071,67.554766 92.4730566,66.7441521 93.2183843,66.8738502 C99.9263292,68.0411344 96.458937,79.5518529 87.9038766,73.2290637 C86.8993048,72.4184497 88.1307153,70.6026745 89.2000978,71.3160148 C90.366697,72.2239024 92.7647067,74.234225 94.4497941,72.4832989 Z M54.5909877,75.7257548 C54.5909877,75.7257548 54.5909877,75.7257548 54.5909877,75.7257548 C53.0355222,74.753018 51.3504344,74.0072531 49.6005356,73.4560356 C49.4709135,73.423611 50.3782684,72.0617796 50.6051071,72.1266287 C50.475485,72.0617796 51.1560012,71.9969305 51.1884068,71.9969305 C51.2208122,71.9969305 52.841089,72.6129971 53.6188218,73.0020918 L53.6512273,73.0345163 C54.5909877,73.4884602 55.0122597,73.8127057 55.8548036,74.4287723 C55.9196147,74.461197 55.9520202,74.5260461 55.9520202,74.5908951 C55.9520202,75.4663583 55.757587,76.5039443 55.0122597,76.0500002 C54.9150431,75.9851513 54.8178265,75.9203024 54.6882044,75.8554527 L54.5909877,75.7257548 L54.5909877,75.7257548 Z M97.6255369,64.9608014 L97.6255369,64.8311031 C97.755159,63.1126015 98.3384586,61.458949 99.3430296,61.458949 C100.930901,61.458949 101.579012,63.9880646 101.579012,65.1229241 L101.579012,65.1553487 C101.579012,66.2902082 100.801279,68.5923519 99.3430296,68.5923519 C97.8523749,68.5599273 97.5607255,66.0308117 97.6255369,64.9608014 Z M96.232099,80.2003438 C96.5885598,80.4597403 96.8153986,80.8812596 96.8153986,81.3027788 C96.7829925,81.9512697 96.4913431,82.5024876 96.0700708,82.9888558 C95.4867712,83.6049226 94.7090382,84.058866 93.9313059,84.3506873 C92.7323007,84.8046307 91.3388627,84.9343293 90.1398582,84.5452349 C88.973259,84.1561398 87.9038766,83.3131013 87.2557656,82.2755152 C86.672466,81.3352037 86.4456272,80.2003438 86.7696827,79.0979088 C86.7696827,79.0330598 86.8344941,79.000635 86.8993048,79.000635 C87.1909549,79.2600315 87.3529823,79.4870032 87.5150097,79.7463997 C87.8066598,80.167919 88.09831,80.5894382 88.4871762,80.9461085 C89.0704757,81.4649015 89.8482088,81.8864208 90.5935357,82.0161187 C91.3388627,82.1458173 92.1165958,82.0161187 92.7971121,81.6594491 C93.2183843,81.4324767 93.542439,81.1406561 93.8664945,80.8488347 C94.2229553,80.5245893 94.5794162,80.2003438 95.0654998,80.0057962 C95.4867712,79.8436735 95.9080435,79.9733721 96.232099,80.2003438 Z M89.5241533,61.3940999 C87.7418484,61.9453174 85.8623276,61.977742 84.0152121,61.6859209 C82.3949354,61.4265245 81.0014975,60.6483351 79.4460321,60.1943913 C78.1174056,59.8052966 76.5295342,59.9674193 75.1360962,60.1619667 L74.5852021,60.2268158 C73.7750637,60.3240895 72.9649254,60.4537877 72.1547871,60.6159105 C71.4418653,60.7456087 70.7613491,61.0050052 70.0484273,61.0374298 C69.9512108,61.0374298 69.8863997,60.9401561 69.9512108,60.875307 C70.7937546,59.7404474 72.3816258,58.8325598 73.6454416,58.2489178 L73.7426582,58.2164932 C75.2981236,57.4707284 76.9832117,56.8870863 78.7331105,56.7898126 C80.5154146,56.6925389 82.103286,57.5031529 83.8207794,57.8922476 C85.4086501,58.2164932 86.9641162,58.0219459 88.4871762,57.6004266 C90.9499966,56.8222372 91.9869737,60.6483351 89.5241533,61.3940999 Z" id="Shape" fill="#231E4A" fill-rule="nonzero"></path>
                </g>
            </g>
        </g>
    </g>
</svg>